<?xml version="1.0" standalone="no"?>
<!DOCTYPE svg PUBLIC "-//W3C//DTD SVG 1.1//EN" "http://www.w3.org/Graphics/SVG/1.1/DTD/svg11.dtd" >
<svg xmlns="http://www.w3.org/2000/svg">
<metadata></metadata>
<defs>
<font id="galileoflfmedium" horiz-adv-x="921" >
<font-face units-per-em="2048" ascent="1638" descent="-410" />
<missing-glyph horiz-adv-x="552" />
<glyph horiz-adv-x="2048" />
<glyph horiz-adv-x="2048" />
<glyph horiz-adv-x="682" />
<glyph horiz-adv-x="724" d="M154 1352q0 -6 2 -9q37 -57 96 -85.5t125 -28.5t125 28.5t94 85.5q2 2 2 9q0 8 -7 13t-13 5q-2 0 -5 -2q-37 -41 -89 -60.5t-105 -19.5q-55 0 -107.5 19.5t-93.5 60.5q-2 2 -6 2q-6 0 -12 -5t-6 -13z" />
<glyph horiz-adv-x="419" d="M119 1272q0 -45 31.5 -77t76.5 -32t77 32t32 77t-32 76.5t-77 31.5t-76.5 -31.5t-31.5 -76.5z" />
<glyph horiz-adv-x="497" d="M117 1257q0 -55 40 -95t95 -40t95 40t40 95t-40 95.5t-95 40.5t-95 -40t-40 -96zM141 1257q0 47 32 79t79 32t78.5 -31.5t31.5 -79.5q0 -47 -31.5 -78.5t-78.5 -31.5t-79 31.5t-32 78.5z" />
<glyph unicode="&#xa;" horiz-adv-x="505" d="M111 1147l39 -4l131 352h-113zM283 1147l39 -4l131 352h-113z" />
<glyph horiz-adv-x="704" d="M270 -201q0 -53 32 -80.5t77 -27.5q41 0 65.5 10t49.5 27q23 16 19.5 25t-26.5 -1q-31 -12 -57.5 -11t-45.5 12t-31.5 30.5t-12.5 44.5q0 41 8 78t37 94h-37q-35 -49 -56.5 -95t-21.5 -106z" />
<glyph horiz-adv-x="645" d="M68 1395l249 -248h29l248 248h-47l-215 -146l-213 146h-51z" />
<glyph unicode="&#xd;" horiz-adv-x="497" d="M61 0h390v33h-123v858h-267v-33h123v-825h-123v-33z" />
<glyph horiz-adv-x="1136" d="M25 -39l45 -35l1042 1368l-47 39z" />
<glyph horiz-adv-x="983" d="M66 0h870v33h-123v858h-461v285q0 109 39 169t129 60q49 0 84 -9.5t68 -25.5q12 -6 21 -12t9 -10q0 -2 -6 -5q-25 -8 -45 -34.5t-20 -59.5q0 -47 30.5 -72.5t67.5 -25.5q41 0 67.5 27.5t26.5 68.5q0 39 -24.5 74t-66.5 61.5t-97 41t-115 14.5q-84 0 -146.5 -29 t-103.5 -80t-61.5 -119.5t-20.5 -150.5v-168h-120v-33h120v-825h-122v-33zM352 33v825h297v-825h-297z" />
<glyph horiz-adv-x="983" d="M66 0h870v33h-123v1437l-166 -32v-45q-23 14 -61.5 29.5t-98.5 15.5q-158 0 -228.5 -109.5t-70.5 -290.5v-147h-120v-33h120v-825h-122v-33zM352 33v825h297v-825h-297zM352 891v268q0 74 9.5 121t28 74.5t44 39t58.5 11.5q47 0 69.5 -10.5t22.5 -14.5q0 -8 -13 -10 q-29 -8 -51 -31.5t-22 -66.5q0 -45 30.5 -69.5t69.5 -24.5q31 0 51 14v-301h-297z" />
<glyph horiz-adv-x="933" d="M39 336l135 137v-436h-123v-37h783q25 0 36 10t11 39v346q0 16 -2 26.5t-13 10.5q-16 0 -20 -39q-8 -66 -17.5 -129t-34 -113.5t-71.5 -82t-131 -31.5h-262v561l245 246v49l-245 -246v723h133v37h-412v-37h123v-848l-135 -137v-49z" />
<glyph horiz-adv-x="485" d="M39 336l133 135v-438h-123v-33h389v33h-123v551l166 166v49l-166 -166v819h-266v-33h123v-899l-133 -135v-49z" />
<glyph horiz-adv-x="833" d="M49 0h686q25 0 36 10t11 39v346q0 16 -2 26.5t-12 10.5q-16 0 -20 -39q-8 -66 -17.5 -129t-34 -113.5t-71.5 -82t-131 -31.5h-279l551 1333v37h-662q-25 0 -36 -10.5t-11 -38.5v-346q0 -16 2 -26.5t13 -10.5q16 0 20 39q8 63 16.5 127.5t33 115t72.5 82t132 31.5h252 l-549 -1325v-45zM217 1698l199 -199h24l197 199h-37l-172 -117l-170 117h-41z" />
<glyph horiz-adv-x="671" d="M29 0h610v301h-16q-8 -90 -24.5 -143.5t-42.5 -81t-62.5 -35.5t-83.5 -8h-242l453 823v35h-558v-281h15q6 61 16 108.5t30.5 78t52.5 46t79 15.5h219l-446 -817v-41zM68 1395l249 -248h29l248 248h-47l-215 -146l-213 146h-51z" />
<glyph unicode=" "  horiz-adv-x="552" />
<glyph unicode="&#x09;" horiz-adv-x="552" />
<glyph unicode="&#xa0;" horiz-adv-x="552" />
<glyph unicode="!" horiz-adv-x="512" d="M152 1249q0 -12 6 -69.5t15 -142.5t20.5 -186t22.5 -200.5t21.5 -187.5t16.5 -146h20q6 57 16.5 145.5t22 189t22.5 201.5t20.5 185t15.5 141.5t6 67.5q0 86 -30 128t-83 42q-51 0 -81.5 -43t-30.5 -125zM170 94q0 -41 28.5 -69.5t69.5 -28.5t70 28.5t29 69.5t-29 70 t-70 29t-69.5 -29t-28.5 -70z" />
<glyph unicode="&#x22;" horiz-adv-x="618" d="M109 1321q0 -29 11 -56.5t23 -68.5q10 -33 17.5 -77t7.5 -107q0 -31 27 -31t26 31q0 61 6 105t15 79q10 41 20 69.5t10 55.5q0 47 -23.5 69.5t-58.5 22.5q-39 0 -60 -25.5t-21 -66.5zM375 1321q0 -29 11 -56.5t24 -68.5q10 -33 17 -77t7 -107q0 -31 27 -31t26 31 q0 61 6.5 105t14.5 79q10 41 20.5 69.5t10.5 55.5q0 47 -23.5 69.5t-58.5 22.5q-39 0 -60.5 -25.5t-21.5 -66.5z" />
<glyph unicode="#" horiz-adv-x="952" d="M102 631h199l-61 -254h49l61 254h185l-64 -262h49l64 262h204l13 49h-205l55 229h203l12 49h-204l61 252h-49l-62 -252h-184l61 252h-49l-61 -252h-197l-12 -49h199l-56 -229h-198zM362 680l54 229h186l-55 -229h-185z" />
<glyph unicode="$" horiz-adv-x="970" d="M61 274q0 -53 28 -95t72 -71.5t97 -48t104 -24.5v-127h31v123q10 -2 26.5 -3t33.5 -1q29 0 55.5 2t46.5 6v-127h31v131q55 12 111.5 38.5t101.5 72t72.5 111t27.5 153.5q0 82 -23.5 141t-64.5 102t-98.5 72t-126.5 47v510q45 -10 84 -22.5t69 -40.5q-6 2 -18 2 q-41 0 -62.5 -30t-21.5 -67q0 -41 26.5 -68.5t73.5 -27.5q41 0 66.5 27.5t25.5 68.5q0 68 -63.5 119t-179.5 70v137h-31v-133q-16 2 -36.5 3t-43.5 1t-44 -1t-38 -5v135h-31v-143q-55 -14 -104 -46t-86 -77t-59.5 -101.5t-22.5 -119.5q0 -147 71.5 -233.5t200.5 -119.5v-551 q-76 14 -137 42t-94 75q8 -4 14 -4h15q41 0 67.5 28.5t26.5 82.5q0 33 -23.5 62.5t-70.5 29.5q-39 0 -69 -29t-30 -76zM178 1034q0 76 46 144.5t138 99.5v-463q-92 20 -138 83.5t-46 135.5zM393 61v547q37 -8 80 -11t82 -11v-520q-16 -4 -38.5 -6.5t-45.5 -2.5t-43 1t-35 3z M393 809v477q18 4 39.5 6t44.5 2t42.5 -1t35.5 -3v-508q-49 10 -89 14.5t-73 12.5zM586 72v506q68 -16 112.5 -43t71.5 -60t38 -69.5t11 -69.5q0 -102 -64.5 -172t-168.5 -92z" />
<glyph unicode="%" horiz-adv-x="1425" d="M100 1036q0 -70 19.5 -136t59.5 -118.5t98.5 -84t138.5 -31.5q76 0 132 31.5t94 84t57.5 118.5t19.5 136q0 68 -19.5 134.5t-58.5 117.5t-97.5 83t-135.5 32q-78 0 -135.5 -32t-95.5 -83t-57.5 -116.5t-19.5 -135.5zM260 1020v33q0 61 3 120.5t16.5 104.5t43 72.5 t85.5 27.5q55 0 84.5 -26.5t43 -71.5t16.5 -104.5t3 -122.5v-33q0 -72 -3 -132.5t-16.5 -104.5t-42 -68.5t-77.5 -24.5q-57 0 -89 26.5t-46.5 72t-17.5 104.5t-3 127zM291 -8h65l746 1360h-66zM705 350q0 -70 19 -136.5t59 -118.5t98.5 -83.5t138.5 -31.5q76 0 132 31.5 t94 83.5t57.5 118.5t19.5 136.5q0 68 -19.5 134.5t-58.5 117.5t-97 83t-136 32t-135.5 -32t-95.5 -83t-57 -116.5t-19 -135.5zM864 334v33q0 61 3 120.5t16.5 104.5t43 72.5t85.5 27.5q55 0 84.5 -26.5t43 -71.5t16.5 -104.5t3 -122.5v-33q0 -72 -3 -132.5t-16.5 -104.5 t-42 -68.5t-77.5 -24.5q-57 0 -89 26.5t-46.5 71.5t-17.5 104.5t-3 127.5z" />
<glyph unicode="&#x26;" horiz-adv-x="1146" d="M43 319q0 -55 16.5 -112t50 -103.5t86 -75t126.5 -28.5q61 0 116.5 21.5t104.5 54.5t91 72.5t73 74.5l65 -139q23 -47 51.5 -71.5t77.5 -24.5q57 0 108.5 55t71.5 170q2 8 2 16q0 18 -10 19q-14 0 -16 -27q-8 -59 -33.5 -108.5t-58.5 -49.5t-62 60l-104 213q23 35 41 92 t28 131q4 27 6.5 60.5t6.5 68.5t12 67.5t25 57.5q6 -27 26.5 -38t38.5 -11q29 0 48.5 18.5t19.5 44.5q0 27 -19.5 47.5t-50.5 20.5q-45 0 -82 -49q-23 -33 -34 -69t-16 -71.5t-7 -71.5t-6 -69q-10 -66 -23.5 -111.5t-30.5 -80.5l-247 516q84 53 144 130t60 175 q0 104 -55 162.5t-160 58.5q-49 0 -90 -21.5t-71.5 -58.5t-47 -85t-16.5 -101q0 -37 8 -75t29 -83l65 -143q-45 -33 -106.5 -81t-117.5 -113.5t-95 -148.5t-39 -186zM164 451q0 68 23.5 122t60.5 98t82 79.5t88 66.5l272 -565q-29 -27 -57.5 -54.5t-62 -49t-71.5 -35 t-81 -13.5q-68 0 -116 34t-78.5 86t-45 114t-14.5 117zM397 1243q0 68 37 105.5t90 37.5q86 0 136.5 -50t50.5 -142q0 -86 -55.5 -158.5t-135.5 -120.5l-96 215q-27 61 -27 113z" />
<glyph unicode="'" horiz-adv-x="399" d="M129 1321q0 -29 11.5 -56.5t23.5 -68.5q10 -33 17 -77t7 -107q0 -31 27 -31t27 31q0 61 6 105t14 79q10 41 20.5 69.5t10.5 55.5q0 47 -23.5 69.5t-58.5 22.5q-39 0 -60.5 -25.5t-21.5 -66.5z" />
<glyph unicode="(" horiz-adv-x="552" d="M158 633q0 -127 18.5 -249t55 -234.5t93 -210t132.5 -170.5q8 0 8 12q0 14 -16 51q-37 74 -64 166t-44 197.5t-26.5 221t-9.5 232.5t9.5 232.5t26.5 223t44 202t64 168.5q16 33 16 51q0 12 -8 12q-74 -82 -130.5 -185.5t-93 -221t-56 -244.5t-19.5 -254z" />
<glyph unicode=")" horiz-adv-x="552" d="M115 -219q0 -12 8 -12q76 74 132 171t93 209.5t55.5 234.5t18.5 249t-19.5 254t-56.5 244.5t-93 221t-130 185.5q-8 0 -8 -12q0 -18 16 -51q37 -74 63.5 -168.5t44 -202t26.5 -223t9 -232.5t-9 -232.5t-26.5 -221t-44 -197.5t-63.5 -166q-16 -37 -16 -51z" />
<glyph unicode="*" horiz-adv-x="778" d="M70 932q0 -25 18 -45.5t47 -20.5q16 0 33.5 8.5t36.5 30.5q39 47 85 87t87 65q0 -47 -12.5 -107.5t-32.5 -115.5q-8 -23 -8 -46q0 -35 20.5 -51t44.5 -16q23 0 44.5 16.5t21.5 50.5q-1 19 -11 46q-23 57 -35 116.5t-14 108.5q41 -25 87 -65t85 -87q35 -41 70 -41 q29 0 47 21.5t18 48.5q0 23 -18 43t-61 27q-59 10 -118 28.5t-99 40.5q41 23 99 42.5t118 29.5q41 8 59 28.5t18 43.5q0 27 -17 47t-46 20q-37 0 -72 -41q-39 -47 -83 -88t-85 -65q0 47 12.5 106t34.5 117q10 27 11 45q0 35 -20.5 51t-45.5 16t-45 -16t-20 -51q0 -23 8 -45 q20 -55 32.5 -115.5t12.5 -107.5q-41 25 -86 65.5t-84 87.5q-18 23 -36.5 32t-35.5 9q-29 0 -46 -20.5t-17 -46.5q0 -23 17 -43.5t61 -28.5q59 -10 117.5 -29.5t99.5 -42.5q-41 -25 -99.5 -43t-117.5 -28q-43 -8 -61.5 -29t-18.5 -43z" />
<glyph unicode="+" horiz-adv-x="782" d="M106 635h256v-256h84v256h256v82h-256v256h-81v-256h-259v-82z" />
<glyph unicode="," horiz-adv-x="552" d="M115 -182q0 -6 8 -6q2 0 14 4q51 18 97.5 49t82 69.5t57 80.5t21.5 83q0 49 -29.5 89t-86.5 40t-86 -32.5t-29 -73.5q0 -47 28.5 -76t71.5 -29q14 0 30.5 3.5t33.5 11.5q-23 -59 -71 -113.5t-132 -91.5q-10 -6 -10 -8z" />
<glyph unicode="-" horiz-adv-x="548" d="M109 635h342v82h-342v-82z" />
<glyph unicode="." horiz-adv-x="491" d="M147 96q0 -45 32 -76.5t77 -31.5t77 31.5t32 76.5t-32 77t-77 32t-77 -32t-32 -77z" />
<glyph unicode="/" horiz-adv-x="532" d="M-10 -133h61l508 1591h-51z" />
<glyph unicode="0" horiz-adv-x="872" d="M45 709q0 -137 23.5 -268.5t71.5 -235t119 -166t167 -62.5q94 0 166 62.5t120 166t71.5 235t23.5 268.5t-23.5 268t-71.5 233.5t-120 165t-166 62.5q-96 0 -167 -62.5t-119 -165t-71.5 -233.5t-23.5 -268zM233 401v574q0 92 7.5 170t29 136t59.5 91t97 33q53 0 90 -33 t59.5 -91t32.5 -136t10 -170v-578q0 -88 -7 -159.5t-28.5 -121.5t-58.5 -78t-98 -28q-59 0 -97 28t-59.5 79t-29 123.5t-7.5 160.5z" />
<glyph unicode="1" horiz-adv-x="888" d="M188 1356l162 22v-1353h-153v-25h475v25h-154v1394l-14 13l-316 -52v-24z" />
<glyph unicode="2" horiz-adv-x="856" d="M68 0h696v504q0 37 -10 37t-12.5 -12.5t-6.5 -41.5q-4 -45 -8 -99t-20.5 -102t-50 -80t-97.5 -32h-405q59 82 151 184.5t203 219.5q45 49 93 108t88 126t66.5 140.5t26.5 149.5t-29.5 137t-79.5 102t-115.5 63.5t-137.5 22.5q-90 0 -152.5 -30.5t-102.5 -74.5t-58.5 -95 t-18.5 -92q0 -76 38 -108t81 -32q49 0 86 36t37 95q0 68 -36 102t-89 34q-18 0 -35 -5q23 49 82 94.5t168 45.5q100 0 159.5 -76t59.5 -217q0 -139 -43 -258t-135 -234q-55 -68 -112.5 -136t-110 -131.5t-96.5 -122t-74 -107.5v-115z" />
<glyph unicode="3" horiz-adv-x="876" d="M90 211q0 -43 23.5 -84t64.5 -72.5t95.5 -52t117.5 -20.5q86 0 156.5 30.5t121 86t78 131t27.5 163.5q0 76 -26.5 137.5t-67.5 107.5t-88 75.5t-90 44.5q39 0 84 27.5t84 72.5t63.5 104.5t24.5 124.5q0 82 -26.5 145.5t-74 107.5t-112 68t-137.5 24q-66 0 -119 -21.5 t-91 -55.5t-59.5 -77t-21.5 -84q0 -47 24.5 -80t73.5 -33t76.5 31t27.5 74q0 37 -22.5 68.5t-67.5 31.5q-16 0 -24 -2q-12 -4 -15 -4q-4 0 -4 2q0 6 14.5 24.5t43 39t68.5 37t94 16.5q100 0 145 -72t45 -244q0 -147 -55.5 -228t-163.5 -81q-16 0 -38 1t-44.5 3t-42 3 t-29.5 1q-25 0 -24 -22q0 -23 24 -23q25 0 74 4t80 4q121 0 178 -82.5t57 -269.5q0 -86 -11 -155.5t-36.5 -119.5t-67.5 -77t-106 -27q-82 0 -138 32t-87 73q18 -8 39 -8q43 0 75.5 27.5t32.5 78.5t-32.5 83t-79.5 32q-51 0 -81 -35t-30 -86z" />
<glyph unicode="4" horiz-adv-x="876" d="M49 442h397v-417h-145v-25h449v25h-146v417h156v-202h31v448h-31v-215h-156v674q-39 -92 -81 -146.5t-77 -89.5v-438h-370q27 37 68.5 96.5t88 126t89.5 133t71 119.5q23 41 53.5 93.5t62.5 117t60.5 142t46.5 172.5h-145q-23 -129 -61.5 -255t-92.5 -245 q-25 -55 -58.5 -123t-70 -134.5t-73.5 -128t-66 -104.5v-41z" />
<glyph unicode="5" horiz-adv-x="872" d="M84 248q0 -43 20.5 -89t57.5 -85t90 -63.5t119 -24.5q92 0 167.5 33.5t130 96t85 151.5t30.5 198q0 119 -43 198.5t-110.5 129t-151.5 71t-166 21.5q-53 0 -94 -6.5t-63 -14.5v363h348q86 0 122 29.5t46 60.5q10 35 15 64.5t5 48.5q0 45 -16 45q-12 0 -21 -33 q-4 -23 -18 -29t-49 -6h-412q-31 0 -42 -16.5t-11 -38.5v-539q23 10 70 21.5t106 11.5q55 0 111.5 -15.5t103.5 -57.5t77 -115.5t30 -192.5q0 -221 -59.5 -331.5t-190.5 -110.5q-49 0 -86 14t-64.5 35.5t-45 45t-25.5 42.5q20 -10 47 -10q49 0 85.5 27.5t36.5 84.5 q0 51 -29.5 88t-86.5 37q-45 0 -82 -35t-37 -104z" />
<glyph unicode="6" horiz-adv-x="884" d="M80 594q0 -301 99.5 -459t264.5 -158q66 0 129.5 29t113.5 88.5t81 150.5t31 216q0 100 -27 182t-73 141.5t-109.5 92t-136.5 32.5q-37 0 -70 -13t-58.5 -33.5t-45 -46t-27.5 -50.5q0 53 2 112.5t7 118t14.5 111.5t23.5 94q18 51 47 85t60.5 54.5t65.5 28.5t63 8 q25 0 44 -4t27 -12q-25 -10 -42 -30.5t-17 -55.5t22.5 -56.5t61.5 -21.5q35 0 57.5 26.5t22.5 65.5q0 20 -9.5 42t-31 40.5t-54 30.5t-81.5 12q-37 0 -79 -9t-84 -34.5t-83 -71t-78 -114.5q-66 -129 -98.5 -283.5t-32.5 -308.5zM252 348v279q0 47 16.5 92t44 78.5t62.5 54 t74 20.5q98 0 141 -86t43 -256v-135q0 -197 -42 -289t-147 -92q-55 0 -92 28t-59.5 74t-31.5 106.5t-9 125.5z" />
<glyph unicode="7" horiz-adv-x="856" d="M102 1042h25v185h545q-63 -127 -108.5 -218t-77 -164t-56 -134.5t-47.5 -128.5q-29 -84 -47.5 -156t-30.5 -140.5t-18 -137t-8 -148.5h182q0 53 1 128t6 161t15.5 182t30.5 193q27 127 65.5 245.5t104.5 259.5l96 211l-28 27h-650v-365z" />
<glyph unicode="8" horiz-adv-x="868" d="M57 365q0 -92 30 -164t80 -121t117.5 -74.5t145.5 -25.5q176 0 275.5 99t99.5 265q0 80 -27.5 147.5t-69.5 124t-92.5 100.5t-93.5 79q37 14 78 36.5t76 58.5t58.5 89t23.5 129q0 66 -24.5 122t-68.5 98t-104.5 66.5t-130.5 24.5q-72 0 -133 -24.5t-106.5 -67.5 t-70 -99.5t-24.5 -119.5q0 -78 27 -135.5t63.5 -101.5t75.5 -74.5t66 -53.5q-47 -20 -95.5 -53t-87.5 -79t-63.5 -106.5t-24.5 -139.5zM156 369q0 137 45 220t159 136q172 -131 248 -244.5t76 -218.5q0 -51 -17.5 -96t-51 -78t-81 -52.5t-106.5 -19.5q-131 0 -201.5 92.5 t-70.5 260.5zM209 1190q0 84 61.5 138t159.5 54q100 0 171 -68.5t71 -205.5q0 -70 -14.5 -119t-39 -82t-57.5 -54.5t-69 -35.5q-131 88 -207 182.5t-76 190.5z" />
<glyph unicode="9" horiz-adv-x="872" d="M66 936q0 -102 26.5 -184t73.5 -141.5t111.5 -91.5t140.5 -32q66 0 119 40t77 100q0 -23 -3 -77t-10 -119.5t-18.5 -131.5t-29.5 -111q-20 -51 -48 -85.5t-58.5 -55t-60 -29t-56.5 -8.5q-16 0 -30.5 2t-25.5 6q16 8 36 24.5t20 63.5q0 41 -27 66t-63 25q-37 0 -61.5 -26 t-24.5 -67q0 -49 44 -84.5t128 -35.5q123 0 210 69.5t142 186t80.5 271.5t25.5 327q0 162 -29.5 273.5t-78.5 180t-114.5 98t-137.5 29.5q-66 0 -130.5 -28.5t-114.5 -89t-81.5 -151.5t-31.5 -214zM236 799v248q0 154 41.5 244.5t146.5 90.5q57 0 95 -30.5t60.5 -78.5 t30.5 -107.5t8 -116.5v-240q0 -72 -17 -125t-45 -88t-63.5 -53.5t-70.5 -18.5q-90 0 -138 70t-48 205z" />
<glyph unicode=":" horiz-adv-x="559" d="M170 96q0 -45 31.5 -76.5t77.5 -31.5q45 0 76.5 31.5t31.5 76.5t-31.5 77t-76.5 32t-77 -32t-32 -77zM170 776q0 -45 31.5 -76.5t77.5 -31.5q45 0 76.5 31.5t31.5 76.5t-31.5 77t-76.5 32t-77 -32t-32 -77z" />
<glyph unicode=";" horiz-adv-x="552" d="M115 -182q0 -6 8 -6q2 0 14 4q51 18 97.5 49t82 69.5t57 80.5t21.5 83q0 49 -29.5 89t-86.5 40t-86 -32.5t-29 -73.5q0 -47 28.5 -76t71.5 -29q14 0 30.5 3.5t33.5 11.5q-23 -59 -71 -113.5t-132 -91.5q-10 -6 -10 -8zM170 776q0 -45 31.5 -76.5t77.5 -31.5 q45 0 76.5 31.5t31.5 76.5t-31.5 77t-76.5 32t-77 -32t-32 -77z" />
<glyph unicode="&#x3c;" horiz-adv-x="624" d="M84 674l438 -344v119l-295 225l295 231v117z" />
<glyph unicode="=" horiz-adv-x="649" d="M100 489h467v103h-467v-103zM100 766h467v102h-467v-102z" />
<glyph unicode="&#x3e;" horiz-adv-x="624" d="M127 330l438 344l-438 348v-117l295 -231l-295 -225v-119z" />
<glyph unicode="?" horiz-adv-x="651" d="M53 1145q0 -86 44 -138.5t114 -52.5q66 0 101.5 41t35.5 99q0 25 -8 52.5t-27 55.5q-8 14 -20 15q-14 0 -14 -15q0 -4 1 -7t5 -11q27 -45 26 -90q0 -49 -27.5 -76t-70.5 -27q-53 0 -86 42t-33 112q0 98 57.5 155.5t147.5 57.5q80 0 127 -59.5t47 -147.5q0 -92 -44 -176 t-93 -158q-55 -82 -91 -152.5t-36 -164.5q0 -84 43 -124t98 -40q53 0 90 37t37 90q0 31 -16.5 62.5t-50.5 54.5q-14 8 -25 8q-10 0 -10 -10t16 -21q51 -37 51 -94q0 -37 -27.5 -62.5t-64.5 -25.5q-43 0 -71.5 31.5t-28.5 93.5q0 90 43 160.5t121 140.5q61 51 102 89 t66.5 72.5t37 71.5t11.5 86q0 57 -19.5 109.5t-57.5 92.5t-91 63.5t-121 23.5q-72 0 -126 -21.5t-90 -57.5t-54.5 -84t-18.5 -101zM233 96q0 -45 32 -76.5t77 -31.5t77 31.5t32 76.5t-32 77t-77 32t-77 -32t-32 -77z" />
<glyph unicode="@" horiz-adv-x="1402" d="M98 629q0 -150 47.5 -264.5t127 -191.5t185 -117t220.5 -40q123 0 216 29t144 64q49 37 49 53q0 20 -14 20q-12 0 -26.5 -6t-36.5 -20q-45 -27 -124 -55.5t-208 -28.5q-100 0 -195.5 34.5t-170 104.5t-120 174t-45.5 244q0 121 45.5 223t121 176t175 116t207.5 42 q150 0 255.5 -51.5t173 -131t98 -178t30.5 -190.5q0 -76 -21.5 -136.5t-59 -101.5t-88 -63.5t-105.5 -22.5q-51 0 -89 28t-38 99q0 35 12 84l119 447l-131 -13l-16 -57q-23 31 -53.5 51.5t-86.5 20.5q-96 0 -161.5 -45t-105.5 -110.5t-58.5 -140.5t-18.5 -136 q0 -104 46 -174t139 -70q61 0 108 33.5t84 97.5q6 -74 63.5 -122t155.5 -48q74 0 138.5 22.5t112.5 69.5t76 118t28 169t-34 204.5t-106.5 193.5t-187.5 144.5t-279 57.5q-123 0 -231.5 -45t-189 -126t-129 -192.5t-48.5 -242.5zM471 475q0 98 19.5 181t52 143.5t74.5 95.5 t85 35q25 0 46.5 -10.5t37 -23.5t24.5 -28.5t9 -27.5v-6l-86 -312q-20 -70 -69.5 -125t-112.5 -55q-80 0 -80 133z" />
<glyph unicode="A" horiz-adv-x="1069" d="M35 0h358v37h-182l102 395h314l108 -395h-168v-37h477v37h-141l-358 1388h-17l-354 -1388h-139v-37zM324 469l147 586l150 -586h-297z" />
<glyph unicode="B" horiz-adv-x="929" d="M68 0h493q82 0 144.5 31.5t104.5 87t62.5 127t20.5 151.5t-26.5 143.5t-69.5 109.5t-96.5 74t-108.5 38q37 6 81 26.5t83 57.5t64.5 93t25.5 136q0 82 -30 144.5t-79 103.5t-113.5 62.5t-136.5 21.5h-419v-37h102v-1333h-102v-37zM326 37v708h163q43 0 87.5 -15t80 -54 t57 -106.5t21.5 -172.5q0 -113 -20.5 -182.5t-54 -109t-77.5 -54t-94 -14.5h-163zM326 782v588h143q106 0 167.5 -66.5t61.5 -228.5q0 -156 -59 -224.5t-152 -68.5h-161z" />
<glyph unicode="C" horiz-adv-x="1013" d="M70 690q0 -135 31.5 -266t96 -232.5t160 -164t224.5 -62.5q51 0 91 14.5t71.5 34t54 43t37.5 41.5l75 -110q14 -20 23 -21q10 0 10 27v391q0 37 -16 37t-21 -31q-12 -68 -37.5 -137.5t-65.5 -125.5t-94.5 -91t-127.5 -35q-154 0 -241 156.5t-87 476.5v117q0 334 86 484 t244 150q63 0 115.5 -29.5t91 -77.5t64.5 -109.5t36 -127.5q2 -20 18 -20q14 0 15 20v373q0 16 -13 17q-6 0 -10 -5.5t-8 -9.5l-68 -112q-16 20 -37.5 41.5t-51 38t-66.5 27.5t-86 11q-129 0 -225.5 -63.5t-161 -165.5t-96 -234.5t-31.5 -269.5z" />
<glyph unicode="D" horiz-adv-x="1056" d="M63 0h449q233 0 363.5 180t130.5 525q0 160 -35 289.5t-100.5 222t-157.5 141.5t-205 49h-445v-37h123v-1333h-123v-37zM344 37v1333h145q172 0 255 -152.5t83 -447.5v-131q0 -283 -79.5 -442.5t-249.5 -159.5h-154z" />
<glyph unicode="E" d="M72 1370h125v-1333h-123v-37h745q25 0 36 10t11 39v352q0 31 -16 31t-21 -39q-8 -66 -18 -129t-34.5 -113.5t-71 -82t-121.5 -31.5h-230v684h142q37 0 58 -22.5t32.5 -58.5t15.5 -81l8 -90q0 -23 21 -23q16 0 16 23v539q0 25 -16 24q-20 0 -21 -22q-4 -45 -8 -90.5 t-15.5 -81t-33 -58t-57.5 -22.5h-142v612h252q51 0 84 -20.5t51.5 -57.5t27.5 -90t15 -119q2 -35 21 -34q10 0 13 6t3 28v277q0 47 -43 47h-706v-37z" />
<glyph unicode="F" horiz-adv-x="854" d="M49 0h426v31h-133v690h141q37 0 58.5 -22.5t33 -58.5t15.5 -81l8 -90q0 -23 20 -23q16 0 17 23v539q0 25 -17 24q-20 0 -20 -22q-4 -45 -8 -90.5t-15.5 -81t-33 -58t-58.5 -22.5h-141v612h252q51 0 84 -20.5t51.5 -57.5t27.5 -90t15 -119q2 -35 21 -34q10 0 13 6t3 28 v277q0 47 -43 47h-707v-37h123v-1339h-133v-31z" />
<glyph unicode="G" horiz-adv-x="1044" d="M51 674q0 -133 29 -260t87 -225.5t145 -159t204 -60.5q94 0 143.5 46t75.5 128l139 -176h9v598h141v37h-481v-37h174v-258q0 -141 -51.5 -221t-151.5 -80q-76 0 -131 59.5t-91 149.5t-53.5 196.5t-17.5 200.5v123q0 80 10.5 191.5t43 214t96 174t170.5 71.5 q61 0 112.5 -29.5t90 -77.5t64.5 -109.5t36 -127.5q2 -20 18 -20q14 0 15 20v365q0 10 -2.5 17.5t-10.5 7.5t-12 -6.5t-8 -12.5l-66 -108q-16 18 -37.5 39.5t-50 39t-65.5 28.5t-84 11q-121 0 -213 -64.5t-153.5 -171t-92.5 -240.5t-31 -273z" />
<glyph unicode="H" horiz-adv-x="1105" d="M61 0h414v37h-133v692h430v-692h-133v-37h418v37h-129v1333h123v37h-412v-37h133v-598h-430v598h133v37h-414v-37h123v-1333h-123v-37z" />
<glyph unicode="I" horiz-adv-x="557" d="M84 0h403v37h-122v1333h116v37h-397v-37h123v-1333h-123v-37z" />
<glyph unicode="J" horiz-adv-x="618" d="M10 131q0 -27 10.5 -54.5t33 -51t57 -38t82.5 -14.5q72 0 120.5 25t79.5 70t45.5 107.5t14.5 137.5v1057h122v37h-425v-37h147v-1153q0 -123 -26.5 -169t-84.5 -46q-41 0 -61.5 12.5t-28.5 26.5q41 8 59.5 32.5t18.5 61.5q0 29 -19.5 58.5t-60.5 29.5q-47 0 -65.5 -28.5 t-18.5 -63.5z" />
<glyph unicode="K" horiz-adv-x="1105" d="M55 0h416v37h-129v1333h131v37h-418v-37h131v-1333h-131v-37zM356 766l392 -729h-134v-37h457v37h-137l-453 835l346 498h142v37h-318v-37h135z" />
<glyph unicode="L" horiz-adv-x="933" d="M51 0h783q25 0 36 10t11 39v346q0 16 -2 26.5t-13 10.5q-16 0 -20 -39q-8 -66 -17.5 -129t-34 -113.5t-71.5 -82t-131 -31.5h-262v1333h133v37h-412v-37h123v-1333h-123v-37z" />
<glyph unicode="M" horiz-adv-x="1259" d="M45 0h274v37h-122v1300l360 -1337h21l362 1309v-1272h-123v-37h402v37h-123v1333h123v37h-293l-293 -1061l-293 1061h-281v-37h101v-1333h-115v-37z" />
<glyph unicode="N" horiz-adv-x="1038" d="M45 0h272v37h-122v1276l626 -1327h66v1384h112v37h-272v-37h123v-1026l-502 1063h-303v-37h113v-1333h-113v-37z" />
<glyph unicode="O" horiz-adv-x="1122" d="M61 698q0 -137 32 -268t94.5 -234.5t156.5 -166t219 -62.5t219.5 62.5t156.5 166t93 234.5t31 268t-31 268.5t-93 235t-156.5 166t-219.5 62.5t-219 -62.5t-156.5 -166t-94.5 -235t-32 -268.5zM248 631v133q0 330 83 479.5t232 149.5q63 0 120.5 -36t100.5 -113 t69 -195.5t26 -284.5v-133q0 -317 -89.5 -472t-226.5 -155q-63 0 -120.5 38t-100.5 116t-68.5 195.5t-25.5 277.5z" />
<glyph unicode="P" horiz-adv-x="878" d="M51 1370h139v-1333h-137v-37h434v37h-139v606h158q66 0 127 22.5t108 69.5t76 120t29 173q0 86 -25.5 155.5t-72 119t-111.5 77t-145 27.5h-441v-37zM348 680v690h123q49 0 90 -16.5t68.5 -56.5t43 -105.5t15.5 -163.5t-15.5 -164.5t-44 -107.5t-68.5 -58.5t-89 -17.5 h-123z" />
<glyph unicode="Q" horiz-adv-x="1101" d="M61 698q0 -125 26 -243.5t75 -217t122.5 -167t172.5 -90.5q-20 0 -52 -2.5t-68 -9.5t-74 -21.5t-73 -38.5q-12 -10 -12 -17q0 -8 10 -8q8 0 15 4q82 47 168 47q68 0 127 -32.5t98 -102.5q61 -111 133 -159t154 -48q84 0 180 43q12 6 12 13q0 10 -14 10q-8 0 -12 -2 q-35 -12 -66 -12q-57 0 -108.5 41t-110.5 131q-51 78 -98.5 109.5t-73.5 41.5q119 8 207 73.5t146.5 167t88 229.5t29.5 261q0 137 -31 268.5t-93 235t-156.5 166t-219.5 62.5t-219 -62.5t-156.5 -166t-94.5 -235t-32 -268.5zM248 631v133q0 330 83 479.5t232 149.5 q63 0 120.5 -36t100.5 -113t69 -195.5t26 -284.5v-133q0 -317 -89.5 -472t-226.5 -155q-63 0 -120.5 38t-100.5 116t-68.5 195.5t-25.5 277.5z" />
<glyph unicode="R" horiz-adv-x="1001" d="M41 0h420v37h-127v686h110q111 0 157 -89t46 -300q0 -98 10.5 -164t32 -105.5t56 -56t81.5 -16.5q45 0 87 20.5t69 55.5l4 8q0 8 -6 8t-12 -6q-45 -39 -78 -39q-23 0 -37 15.5t-23.5 38t-12.5 51t-3 55.5q0 88 -2 147.5t-8 101t-16.5 70.5t-24.5 55q-39 72 -92.5 110 t-112.5 46q45 10 93 34.5t87 65.5t64.5 98.5t25.5 133.5q0 74 -23.5 136.5t-68.5 109.5t-111.5 73.5t-150.5 26.5h-434v-37h123v-1333h-123v-37zM334 760v610h125q49 0 90 -15.5t70.5 -51t47 -94t17.5 -144.5t-17.5 -144.5t-47 -94t-70.5 -51t-90 -15.5h-125z" />
<glyph unicode="S" horiz-adv-x="872" d="M70 12q0 -28 11 -28h1q10 0 16 9t13 23l53 115q20 -25 46 -51.5t61.5 -47t80.5 -33.5t103 -13q92 0 163.5 31.5t120.5 86t75 127t26 154.5q0 133 -61.5 235.5t-186.5 159.5q-39 18 -81 38t-83 42.5t-79 45t-68 46.5q-45 35 -70 90.5t-25 106.5q0 49 14.5 93t45 78 t78 53.5t112.5 19.5q63 0 109.5 -27t78 -68t50 -90t28.5 -94q8 -51 23 -51q12 0 12 33v317q0 25 -8 25q-6 -1 -20 -21l-60 -84q-25 29 -76 63t-137 34q-84 0 -149.5 -31t-109.5 -82t-66.5 -117.5t-22.5 -136.5q0 -53 13.5 -106.5t41 -100.5t69.5 -87t99 -67 q100 -47 184.5 -90t153.5 -90q53 -35 79 -90t26 -119q0 -53 -21.5 -105t-61.5 -93t-94.5 -66.5t-121.5 -25.5q-66 0 -122.5 28.5t-100.5 74.5t-74.5 103.5t-46.5 114.5q-8 29 -13.5 38t-13.5 9q-14 0 -14 -26v-353z" />
<glyph unicode="T" horiz-adv-x="1003" d="M45 1024h25q10 98 25.5 163.5t40 106.5t63.5 58.5t94 17.5h129v-1333h-141v-37h436v37h-139v1333h129q55 0 94 -17.5t63.5 -58.5t40 -106.5t25.5 -163.5h24l-24 346q-4 37 -45 37h-774q-39 0 -41 -37z" />
<glyph unicode="U" horiz-adv-x="1009" d="M37 1370h123v-983q0 -184 88 -294.5t258 -110.5q182 0 265 103t83 302v983h123v37h-293v-37h133v-981q0 -100 -21.5 -168.5t-56 -111.5t-80 -61.5t-90.5 -18.5q-53 0 -100 16t-81 58t-53.5 115t-19.5 188v964h134v37h-412v-37z" />
<glyph unicode="V" horiz-adv-x="1009" d="M35 1370h133l346 -1399h31l297 1399h139v37h-315v-37h137l-219 -1032l-258 1032h149v37h-440v-37z" />
<glyph unicode="W" horiz-adv-x="1466" d="M33 1370h104l414 -1388h14l195 731l223 -731h16l326 1388h109v37h-265v-37h119l-252 -1065l-194 625l106 440h119v37h-1034v-37zM291 1370h256l190 -598l-121 -461zM707 1370h202l-90 -379z" />
<glyph unicode="X" horiz-adv-x="1085" d="M27 0h340v37h-162l295 616l268 -616h-141v-37h434v37h-113l-348 776l258 557h148v37h-340v-37h151l-237 -510l-238 510h154v37h-465v-37h141l305 -678l-313 -655h-137v-37z" />
<glyph unicode="Y" horiz-adv-x="1015" d="M37 1370h106l310 -680v-653h-107v-37h369v37h-107v698l264 635h111v37h-266v-37h117l-248 -598l-271 598h109v37h-387v-37z" />
<glyph unicode="Z" horiz-adv-x="833" d="M49 0h686q25 0 36 10t11 39v346q0 16 -2 26.5t-12 10.5q-16 0 -20 -39q-8 -66 -17.5 -129t-34 -113.5t-71.5 -82t-131 -31.5h-279l551 1333v37h-662q-25 0 -36 -10.5t-11 -38.5v-346q0 -16 2 -26.5t13 -10.5q16 0 20 39q8 63 16.5 127.5t33 115t72.5 82t132 31.5h252 l-549 -1325v-45z" />
<glyph unicode="[" horiz-adv-x="491" d="M154 -145h235v30h-113v1557h119v28h-241v-1615z" />
<glyph unicode="\" horiz-adv-x="563" d="M31 1331l465 -1464h51l-465 1464h-51z" />
<glyph unicode="]" horiz-adv-x="491" d="M117 1442h119v-1557h-113v-30h235v1615h-241v-28z" />
<glyph unicode="^" horiz-adv-x="665" d="M72 678h47l215 391l213 -391h51l-250 575h-29z" />
<glyph unicode="_" horiz-adv-x="555" d="M0 -25v-24h573v24h-573z" />
<glyph unicode="`" horiz-adv-x="413" d="M39 1407l309 -311l33 20l-199 291h-143z" />
<glyph unicode="a" horiz-adv-x="804" d="M68 201q0 -113 58 -169.5t140 -56.5q80 0 132.5 39t90.5 88q0 -20 5.5 -42.5t18.5 -42t37.5 -32t61.5 -12.5q49 0 80 18.5t50.5 50.5t28.5 73t13 84v8q0 20 -10 20q-12 0 -14 -24q-10 -61 -21.5 -96t-25 -53.5t-25.5 -23.5t-22 -5q-39 0 -39 59v512q0 66 -10.5 122 t-39 97t-78.5 63.5t-130 22.5q-63 0 -107.5 -16.5t-72 -40t-41 -49t-13.5 -45.5q0 -37 21.5 -56.5t50.5 -19.5q35 0 53.5 20.5t18.5 48.5q0 20 -9.5 38t-27.5 28q-6 2 -6 10q0 14 33.5 31.5t101.5 17.5q59 0 85.5 -37.5t26.5 -103.5v-152q-53 -41 -105 -57t-112 -35 q-57 -18 -95 -50t-61.5 -71.5t-32.5 -81.5t-9 -79zM217 209v35q0 37 6 73.5t21.5 67.5t41 54.5t66.5 35.5q37 10 76 28.5t55 31.5v-351q0 -25 -15 -52.5t-38.5 -51t-51 -39.5t-52.5 -16q-63 0 -86 53t-23 131z" />
<glyph unicode="b" horiz-adv-x="903" d="M49 0h246v106q10 -18 28.5 -40.5t45 -42t60.5 -33t75 -13.5q92 0 160.5 40t114.5 106.5t69.5 150.5t23.5 172t-23.5 172t-69.5 150t-114.5 106.5t-160.5 40.5q-49 0 -84 -12t-59.5 -29.5t-41 -38t-24.5 -36.5v661h-246v-33h103v-1394h-103v-33zM295 188v525q0 12 11 39.5 t35 57.5t61.5 51.5t93.5 21.5q113 0 157.5 -119t44.5 -322q0 -92 -10 -172t-32.5 -137t-59.5 -90t-92 -33q-49 0 -87 22.5t-65.5 52.5t-42 59.5t-14.5 43.5z" />
<glyph unicode="c" horiz-adv-x="759" d="M41 438q0 -88 23.5 -172t69.5 -150.5t117 -106.5t163 -40q123 0 204.5 65.5t108.5 170.5q2 8 2 14q0 21 -14 21q-10 0 -17 -19q-29 -106 -102.5 -161.5t-175.5 -55.5q-115 0 -159 109.5t-44 324.5q0 238 49 341.5t154 103.5q68 0 102.5 -13.5t34.5 -27.5q0 -10 -10 -19 q-16 -14 -25.5 -34.5t-9.5 -40.5q0 -37 25.5 -60.5t66.5 -23.5t63.5 26.5t22.5 61.5q0 27 -14 55.5t-46 53t-84 39.5t-126 15q-94 0 -165 -40.5t-119 -108.5t-71.5 -154t-23.5 -174z" />
<glyph unicode="d" d="M59 446q0 -88 22.5 -172t69 -150.5t116 -106.5t161.5 -40q82 0 131 39t78 82v-98h246v33h-103v1427h-245v-33h102v-624q-23 37 -72 74.5t-137 37.5q-92 0 -161.5 -40.5t-116 -106.5t-69 -149.5t-22.5 -172.5zM233 446q0 223 53.5 330t149.5 107q49 0 86 -21.5t62.5 -51.5 t39 -60.5t13.5 -49.5v-503q0 -16 -14.5 -48t-41 -63t-65.5 -53.5t-88 -22.5q-90 0 -142.5 102.5t-52.5 333.5z" />
<glyph unicode="e" horiz-adv-x="811" d="M63 449q0 -90 23 -175.5t69 -152t114.5 -107.5t160.5 -41q121 0 203 63.5t123 180.5q2 6 2 14q0 16 -15 17q-12 0 -18 -19q-80 -223 -295 -223q-106 0 -152.5 75t-46.5 247v110h523q2 10 2 21v28q0 45 -9.5 117t-44 140.5t-102.5 117.5t-184 49q-88 0 -153.5 -40 t-109.5 -104.5t-67 -148t-23 -169.5zM231 467v156q0 129 47.5 192.5t137.5 63.5q102 0 142 -62.5t40 -193.5v-156h-367z" />
<glyph unicode="f" horiz-adv-x="583" d="M47 0h391v33h-125v825h170v33h-170v272q0 76 7.5 123t20.5 72.5t35.5 35t53.5 9.5q27 0 40 -7t13 -14q0 -6 -6 -8q-37 -14 -37 -55q0 -27 16.5 -42t45.5 -15t45 15t16 44q0 18 -9 37.5t-25.5 37t-43 29t-59.5 11.5q-74 0 -123 -33t-78.5 -89.5t-42 -129t-12.5 -152.5 v-141h-121v-33h121v-825h-123v-33z" />
<glyph unicode="g" horiz-adv-x="770" d="M33 -307q0 -37 17.5 -71t59.5 -61.5t109.5 -44t169.5 -16.5q76 0 141.5 21.5t114.5 61.5t77 95.5t28 124.5q0 115 -73 187.5t-202 72.5q-55 0 -110 -14q-41 -10 -77 -14t-75 -4q-61 0 -93 23.5t-32 60.5q0 31 15.5 54.5t40 40.5t57 28.5t69.5 17.5q18 -4 43 -6t41 -2 q78 0 134.5 24.5t93 68.5t54 103.5t17.5 128.5q0 51 -9 91.5t-23.5 71t-28.5 50t-23 29.5q29 39 52.5 55.5t33.5 16.5q-8 -14 -8 -29q0 -23 15.5 -40t44.5 -17q33 0 45 18.5t12 38.5q0 31 -22.5 48.5t-51.5 17.5q-35 0 -68.5 -23.5t-68.5 -64.5q-10 8 -23.5 21t-37 23.5 t-56.5 18.5t-80 8q-86 0 -144 -32.5t-92 -83t-48.5 -109t-14.5 -109.5q0 -66 18.5 -114.5t44 -85.5t54.5 -61.5t51 -37.5q-76 -18 -130 -61t-54 -135t65.5 -133t169.5 -41q27 0 55.5 3t57.5 7t53.5 7t46.5 3q72 0 114 -21.5t62.5 -50t25.5 -60.5t5 -52q0 -37 -22.5 -75 t-63.5 -66.5t-97 -47t-124 -18.5q-145 0 -212.5 47t-67.5 113t32.5 96.5t79.5 30.5q51 0 86 -15.5t58 -25.5q4 -2 8 -2t4 4q0 2 -6 8q-25 20 -73 39.5t-110 19.5q-78 0 -116.5 -45t-38.5 -110zM223 446v236q0 106 37 149t96 43t96 -44t37 -148v-236q0 -78 -33.5 -121.5 t-99.5 -43.5q-59 0 -96 44.5t-37 120.5z" />
<glyph unicode="h" horiz-adv-x="933" d="M53 0h348v33h-102v600q0 43 19.5 84t50 72.5t68.5 52t75 20.5q49 0 87 -30.5t38 -96.5v-702h-102v-33h348v33h-103v686q0 84 -55 136t-164 52q-53 0 -96 -15t-75 -39t-54.5 -50.5t-36.5 -48.5v702h-246v-33h103v-1390h-103v-33z" />
<glyph unicode="i" horiz-adv-x="497" d="M61 0h390v33h-123v858h-267v-33h123v-825h-123v-33zM150 1290q0 -43 29.5 -72.5t72.5 -29.5t72.5 29.5t29.5 72.5t-29.5 73t-72.5 30t-72.5 -30t-29.5 -73z" />
<glyph unicode="j" horiz-adv-x="491" d="M-12 -383q0 -49 45 -86t110 -37q45 0 92.5 16.5t85 58.5t61.5 112t24 174v1036h-287v-33h143v-1192q0 -72 -38 -105.5t-77 -33.5q-29 0 -43 12q-4 4 -4 6q0 4 6 9q16 10 30 27.5t14 47.5q0 39 -24 58.5t-54 19.5q-31 0 -57.5 -20.5t-26.5 -69.5zM223 1290q0 -43 30 -72.5 t73 -29.5t72.5 29.5t29.5 72.5t-29.5 73t-72.5 30t-73 -30t-30 -73z" />
<glyph unicode="k" horiz-adv-x="970" d="M49 0h385v33h-123v475h43l260 -475h-125v-33h441v33h-133l-334 571l225 254h154v33h-357v-33h162l-289 -321h-47v915h-243v-33h102v-1386h-121v-33z" />
<glyph unicode="l" horiz-adv-x="485" d="M49 0h389v33h-123v1419h-266v-33h123v-1386h-123v-33z" />
<glyph unicode="m" horiz-adv-x="1370" d="M66 0h348v33h-103v616q0 29 14.5 68t41 73.5t61.5 58t78 23.5q49 0 78.5 -32.5t29.5 -91.5v-715h-102v-33h348v33h-102v622q0 41 18.5 80t47 70t64.5 49t70 18q49 0 76 -33.5t27 -90.5v-715h-103v-33h349v33h-103v643q0 119 -49 176t-160 57q-96 0 -155.5 -44t-87.5 -103 q-16 59 -64.5 103t-138.5 44q-98 0 -152.5 -45t-85.5 -106v133h-245v-25h102v-833h-102v-33z" />
<glyph unicode="n" d="M66 0h346v25h-101v626q0 33 15.5 71t41 70.5t60.5 54t76 21.5q49 0 79.5 -30.5t30.5 -85.5v-727h-100v-25h344v25h-100v694q0 84 -50.5 137t-154.5 53q-100 0 -155.5 -44t-86.5 -99v125h-245v-25h102v-841h-102v-25z" />
<glyph unicode="o" horiz-adv-x="897" d="M76 446q0 -88 23.5 -172t70.5 -150.5t117.5 -106.5t165.5 -40q94 0 164.5 40t117.5 106.5t70.5 150.5t23.5 172t-23.5 172t-70.5 150t-117.5 105.5t-164.5 39.5t-165 -39.5t-118 -105.5t-70.5 -150t-23.5 -172zM250 397v97q0 115 13 189.5t39 118.5t63.5 61.5t87.5 17.5 q49 0 87 -17.5t63.5 -61.5t38.5 -119t13 -189v-97q0 -115 -13 -189.5t-38.5 -118.5t-63.5 -61.5t-87 -17.5t-87 17.5t-64 61.5t-39 119t-13 189z" />
<glyph unicode="p" horiz-adv-x="890" d="M45 -479v-33h358v33h-112v608q31 -59 83 -104t132 -45q86 0 150.5 38.5t107.5 103t64.5 147.5t21.5 169q0 88 -22.5 173t-67.5 152.5t-109.5 108.5t-150.5 41q-45 0 -80 -15t-60.5 -39.5t-42 -54.5t-26.5 -56v143h-246v-33h102v-1337h-102zM289 252v346q0 29 12 76 t35.5 93t60.5 80t86 34q43 0 76 -15.5t56.5 -52.5t35 -101.5t11.5 -162.5v-213q0 -100 -12.5 -163.5t-35 -98.5t-55.5 -48.5t-74 -13.5q-39 0 -74.5 25.5t-62 62.5t-43 79t-16.5 73z" />
<glyph unicode="q" horiz-adv-x="909" d="M55 438q0 -86 21.5 -169t64.5 -147.5t107.5 -103t150.5 -38.5q80 0 132.5 45t82.5 104v-608h-112v-33h358v33h-102v1337h102v33h-246v-143q-10 27 -26.5 56.5t-42 54t-60 39.5t-79.5 15q-86 0 -151 -41t-110 -108.5t-67.5 -152.5t-22.5 -173zM244 336v213q0 98 11 162.5 t34.5 101.5t56.5 52.5t76 15.5q49 0 86 -34t60.5 -80t35.5 -93t12 -76v-346q0 -31 -16 -73t-43 -79t-62.5 -62.5t-74.5 -25.5q-41 0 -74 13.5t-55.5 48.5t-34.5 98.5t-12 163.5z" />
<glyph unicode="r" horiz-adv-x="718" d="M53 0h359v33h-113v643q0 31 18.5 64.5t46 63.5t59.5 49t60 19q31 0 31 -14q0 -6 -4 -10q-10 -10 -17.5 -25.5t-7.5 -38.5q0 -41 27 -71.5t78 -30.5q47 0 75.5 26.5t28.5 75.5q0 57 -42 89t-122 32q-53 0 -93 -16.5t-67.5 -39t-45 -46t-25.5 -37.5v125h-246v-33h103v-825 h-103v-33z" />
<glyph unicode="s" horiz-adv-x="675" d="M57 -4h15l63 74q39 -35 87 -61.5t122 -26.5q76 0 130 23.5t90 61t52.5 86t16.5 97.5q0 78 -40 149.5t-130 112.5q-10 4 -35 13.5t-54.5 19.5t-60 20t-55.5 21q-74 29 -100.5 62.5t-26.5 76.5q0 59 45 105.5t148 46.5q51 0 91 -17.5t68.5 -45.5t47 -59.5t24.5 -62.5h18 v189h-10l-45 -52q-27 29 -74 54.5t-120 25.5q-68 0 -117 -20.5t-81 -55t-48.5 -80.5t-16.5 -96q0 -92 43 -149t132 -92q20 -8 46.5 -17.5t54.5 -18.5t51.5 -18.5t37.5 -17.5q59 -35 86 -83t27 -95q0 -63 -49.5 -107.5t-147.5 -44.5q-53 0 -95 21.5t-76 53.5t-57.5 69 t-37.5 67h-19v-229z" />
<glyph unicode="t" horiz-adv-x="608" d="M51 858h123v-653q0 -113 52.5 -170.5t144.5 -57.5q78 0 132 50.5t79 181.5q2 10 2 18q0 18 -17 19q-16 0 -18 -19q-23 -119 -63 -164t-95 -45q-35 0 -54.5 28t-19.5 89v723h220v33h-220v477l-143 -158v-319h-123v-33z" />
<glyph unicode="u" horiz-adv-x="929" d="M57 858h99v-633q0 -127 62.5 -184t166.5 -57q98 0 155.5 46t86.5 105v-135h245v33h-102v858h-246v-33h101v-622q0 -33 -15.5 -71t-43 -71t-64.5 -54.5t-80 -21.5q-49 0 -86 36t-37 122v715h-242v-33z" />
<glyph unicode="v" horiz-adv-x="884" d="M27 858h112l301 -866h23l287 866h110v33h-274v-33h129l-209 -631l-213 631h131v33h-397v-33z" />
<glyph unicode="w" horiz-adv-x="1200" d="M25 858h110l273 -878h20l176 581l197 -581h20l226 878h129v33h-320v-33h156l-156 -612l-194 571h-13l-174 -571l-184 612h149v33h-415v-33z" />
<glyph unicode="x" horiz-adv-x="917" d="M27 0h305v33h-142l216 350l204 -350h-141v-33h430v33h-119l-276 475l217 350h125v33h-287v-33h123l-197 -319l-186 319h133v33h-401v-33h100l256 -442l-235 -383h-125v-33z" />
<glyph unicode="y" horiz-adv-x="925" d="M27 858h127l297 -846l-105 -311q-10 -29 -26.5 -57.5t-37 -51t-44 -37t-50.5 -14.5h-8q29 25 29 72q0 37 -21.5 62.5t-58.5 25.5q-41 0 -62.5 -28.5t-21.5 -63.5q0 -45 32 -76t83 -31q74 0 130 51.5t85 137.5l409 1167h123v33h-280v-33h123l-222 -629l-221 629h152v33 h-432v-33z" />
<glyph unicode="z" horiz-adv-x="671" d="M29 0h610v301h-16q-8 -90 -24.5 -143.5t-42.5 -81t-62.5 -35.5t-83.5 -8h-242l453 823v35h-558v-281h15q6 61 16 108.5t30.5 78t52.5 46t79 15.5h219l-446 -817v-41z" />
<glyph unicode="{" horiz-adv-x="491" d="M57 664q25 -6 48.5 -16.5t42 -29t29.5 -44t11 -62.5v-416q0 -113 50.5 -170t123.5 -57q63 0 82 3t19 13t-13.5 13.5t-54.5 3.5q-25 0 -45 10t-36.5 34.5t-25.5 66.5t-9 108v414q0 39 -15.5 62.5t-38 37.5t-47 19t-41.5 10q18 2 42 9t46.5 20.5t38 37t15.5 60.5v458 q0 66 9 109t25.5 67.5t37 34.5t44.5 10q41 0 54.5 3.5t13.5 13.5t-18.5 13t-82.5 3q-74 0 -124 -57t-50 -174v-459q0 -37 -12 -62.5t-30.5 -43t-42 -27.5t-46.5 -16z" />
<glyph unicode="|" horiz-adv-x="184" d="M74 -104h43v1568h-43v-1568z" />
<glyph unicode="}" horiz-adv-x="491" d="M45 -115q0 -10 18.5 -13t81.5 -3q74 0 124 57.5t50 169.5v416q0 37 11.5 62.5t30 44t42 28.5t48.5 17q-23 6 -46.5 16t-42 27.5t-31 43t-12.5 62.5v459q0 117 -50 174t-124 57q-63 0 -81.5 -3t-18.5 -13t13.5 -13.5t54.5 -3.5q25 0 45 -10t36.5 -34.5t25.5 -67.5t9 -109 v-458q0 -37 15.5 -60.5t38 -37t46 -20.5t42.5 -9q-16 -4 -41 -9.5t-47.5 -19.5t-38 -38t-15.5 -62v-414q0 -66 -9 -108t-25.5 -66.5t-37 -34.5t-44.5 -10q-41 0 -54.5 -3t-13.5 -14z" />
<glyph unicode="~" horiz-adv-x="786" d="M86 705q0 -29 18 -29q14 0 19 24q4 31 27.5 47.5t54.5 16.5t60.5 -14.5t64.5 -30.5q51 -23 102 -30t103 -7q51 0 83.5 13.5t52 33t27 41t7.5 37.5q0 27 -21 27q-18 0 -18 -23q0 -25 -12.5 -40t-45.5 -15q-29 0 -65.5 13t-67.5 28q-41 16 -95 27.5t-106 11.5 q-57 0 -94 -15.5t-57.5 -37t-28.5 -44t-8 -34.5z" />
<glyph unicode="&#xa1;" horiz-adv-x="532" d="M166 -74q0 -86 29.5 -128t83.5 -42q51 0 81.5 43t30.5 125q0 12 -6 69.5t-15.5 142.5t-20.5 186.5t-22.5 201t-21.5 187.5t-16 145h-21q-6 -57 -16 -145t-21.5 -188.5t-22.5 -202t-20.5 -185.5t-15.5 -141.5t-6 -67.5zM176 1079q0 -41 28.5 -69.5t69.5 -28.5t70 28.5 t29 69.5t-29 70t-70 29t-69.5 -29t-28.5 -70z" />
<glyph unicode="&#xa2;" horiz-adv-x="598" d="M47 543q0 -55 16.5 -107.5t49 -93.5t83 -68.5t115.5 -29.5v-90h25v90q55 2 96 21.5t67.5 45t42 54t19.5 47.5q2 8 2 16q0 16 -10 16q-8 0 -14 -18q-4 -12 -14.5 -35.5t-34 -49.5t-61.5 -45.5t-93 -21.5v549q49 0 80 -12q14 -8 14 -16q0 -4 -4 -13q-10 -14 -14 -25.5 t-4 -29.5q0 -29 17 -45t44 -16q29 0 45 18t16 45q0 41 -45 77t-149 38v82h-25v-82q-66 -4 -116 -31t-82.5 -67.5t-49 -94t-16.5 -108.5zM182 489v105q0 121 38 172t91 57v-549q-72 4 -100.5 52.5t-28.5 162.5z" />
<glyph unicode="&#xa3;" horiz-adv-x="1034" d="M39 150q0 -61 40 -110.5t120 -49.5q86 0 131 32.5t61 81.5q55 -59 113.5 -87.5t148.5 -28.5q76 0 132.5 35.5t96.5 91t64.5 123t36.5 131.5v8q0 16 -12 16t-19 -20q-33 -123 -75.5 -171t-104.5 -48q-45 0 -95 21.5t-98.5 50t-91.5 57t-73 45.5v438h149v35h-149v366 q0 68 15 111t42 66.5t62.5 32.5t74.5 9q53 0 104.5 -16t80.5 -47q-47 -4 -84 -38t-37 -99q0 -59 34.5 -92t81.5 -33q57 0 91 39t34 98q0 45 -25.5 86t-66.5 69.5t-91 46t-101 17.5q-143 0 -232.5 -30.5t-139.5 -78.5t-67.5 -108.5t-17.5 -122.5q0 -74 18.5 -143.5 t40.5 -134.5h-159v-35h170q12 -47 28.5 -101.5t32.5 -109.5t31.5 -108.5t30.5 -96.5q-23 6 -42.5 10t-39.5 4q-53 0 -97.5 -18t-77 -48t-51 -69t-18.5 -77zM72 150q0 53 26.5 80.5t55.5 27.5q109 0 208 -119q-10 -51 -51 -83.5t-112 -32.5q-59 0 -93 38.5t-34 88.5z" />
<glyph unicode="&#xa5;" horiz-adv-x="1056" d="M43 1374h123l313 -676h-155v-32h155v-88h-155v-33h155v-512h-155v-33h473v33h-158v512h158v33h-158v88h158v32h-158v47l266 629h123v33h-289v-33h131l-256 -604l-280 604h123v33h-414v-33z" />
<glyph unicode="&#xa6;" horiz-adv-x="184" d="M74 0h43v596h-43v-596zM74 868h43v596h-43v-596z" />
<glyph unicode="&#xa7;" horiz-adv-x="788" d="M90 610q0 -264 295 -338q125 -31 174 -81t49 -115q0 -78 -59.5 -131.5t-169.5 -53.5q-41 0 -75 10.5t-59.5 26t-43 32.5t-25.5 32q-8 10 -8 20q0 6 6 6h8q33 0 53.5 18.5t20.5 51.5q0 27 -16.5 47.5t-51.5 20.5q-37 0 -54 -27t-17 -61q0 -43 19.5 -81t55 -67t84 -45 t103.5 -16q150 0 235.5 87t85.5 238q0 74 -32.5 140.5t-110.5 111.5q96 47 135 116t39 167q0 125 -78 217t-252 131q-106 23 -159.5 61.5t-53.5 100.5q0 63 52.5 111.5t152.5 48.5q49 0 87 -10.5t63.5 -23t39 -24.5t13.5 -14t-2 -2q-35 0 -52.5 -21.5t-17.5 -48.5 q0 -35 20.5 -52t47.5 -17q29 0 49.5 18t20.5 57t-23 71t-59.5 53.5t-86 32.5t-100.5 11q-72 0 -128 -24.5t-94 -66.5t-57.5 -96t-19.5 -112q0 -84 44 -151.5t136 -87.5q-78 -23 -131 -97.5t-53 -173.5zM182 707q0 76 42 112.5t95 48.5q51 -10 109.5 -33.5t108 -57.5t82 -75 t32.5 -86q0 -57 -30.5 -96t-102.5 -67q-33 10 -89 27.5t-111.5 47t-95.5 73.5t-40 106z" />
<glyph unicode="&#xa8;" horiz-adv-x="645" d="M72 1292q0 -41 27.5 -68.5t68.5 -27.5t68.5 27.5t27.5 68.5t-27.5 69t-68.5 28t-68.5 -28t-27.5 -69zM375 1292q0 -41 27.5 -68.5t68.5 -27.5t68.5 27.5t27.5 68.5t-27.5 69t-68.5 28t-68.5 -28t-27.5 -69z" />
<glyph unicode="&#xa9;" horiz-adv-x="1179" d="M55 762q0 -111 42 -209t116 -172t172 -116t209 -42t209 42t172 116t116 172t42 209t-42 209t-116 172t-172 115.5t-209 41.5t-209 -41.5t-172 -115.5t-116 -172.5t-42 -208.5zM100 764q0 102 39 192.5t106.5 158t158 106.5t192.5 39t192.5 -39t158 -106.5t106.5 -158 t39 -192.5t-39 -192.5t-106.5 -158t-158 -106.5t-192.5 -39t-192.5 39t-158 106.5t-106.5 158t-39 192.5zM303 782q0 -53 18.5 -102t55.5 -89t92 -63.5t127 -23.5q76 0 124 22.5t71 38.5v51q-35 -31 -79 -50t-116 -19q-61 0 -108.5 20.5t-78 53t-47 74.5t-16.5 87 q0 43 15.5 85t47 75t79 53.5t108.5 20.5t107.5 -18.5t87.5 -53.5v49q-37 29 -82 47.5t-113 18.5q-74 0 -128 -23.5t-91 -62.5t-55.5 -89t-18.5 -102z" />
<glyph unicode="&#xaa;" horiz-adv-x="626" d="M94 627h473v24h-473v-24zM131 862q0 -68 35 -101.5t84 -33.5q47 0 78.5 23.5t54.5 52.5q0 -25 14.5 -51.5t59.5 -26.5q57 0 77.5 41t26.5 94v6q0 12 -6 13q-8 0 -8 -17q-12 -72 -28.5 -89t-29.5 -17q-23 0 -22 37v307q0 39 -6 72.5t-23.5 58t-48.5 38t-78 13.5 q-37 0 -63.5 -10t-44 -23.5t-24.5 -29t-7 -27.5q0 -23 12.5 -34t30.5 -11q20 0 31.5 12t11.5 29q0 29 -22 39q-4 4 -5 6q0 10 20.5 20.5t61.5 10.5q35 0 51.5 -22.5t16.5 -63.5v-91q-33 -25 -64.5 -35t-66.5 -20q-70 -23 -94.5 -74t-24.5 -96zM221 866v21q0 47 16.5 86 t63.5 53q23 8 46.5 18.5t33.5 18.5v-211q0 -14 -9.5 -31.5t-23.5 -32t-31.5 -23.5t-31.5 -9q-37 0 -50.5 31.5t-13.5 78.5z" />
<glyph unicode="&#xab;" horiz-adv-x="808" d="M70 524l309 -303h53l-237 303l237 305h-49zM342 524l309 -303h54l-238 303l238 305h-50z" />
<glyph unicode="&#xac;" horiz-adv-x="655" d="M78 690h524v29h-524v-29zM168 170q0 -86 49 -130t119 -44q78 0 123 45t45 119q0 37 -12.5 66.5t-31 55t-41 45t-42.5 35.5q16 6 34.5 16.5t35 27t26.5 40t10 58.5q0 59 -42 99t-105 40q-66 0 -108 -41t-42 -98q0 -35 11.5 -60.5t29 -46t35 -34t29.5 -23.5 q-43 -18 -83 -58t-40 -112zM213 172q0 61 19.5 98t72.5 62q78 -59 112 -110.5t34 -98.5t-31 -79t-84 -32q-59 0 -91 42t-32 118zM231 1382l72 11v-611h-67v-10h213v10h-70v629l-6 4l-142 -22v-11zM236 541q0 37 28.5 61.5t71.5 24.5q45 0 76.5 -31t31.5 -92q0 -63 -23.5 -90 t-58.5 -41q-59 41 -92.5 83t-33.5 85z" />
<glyph unicode="&#xad;" horiz-adv-x="548" d="M109 635h342v82h-342v-82z" />
<glyph unicode="&#xae;" horiz-adv-x="870" d="M59 1118q0 -78 30 -146.5t81 -119.5t119.5 -81t146.5 -30t146.5 30t120 81t81 119.5t29.5 146.5t-29.5 146.5t-81 120t-120 81t-146.5 29.5t-146.5 -29.5t-119.5 -81t-81 -120t-30 -146.5zM96 1118q0 70 27 132.5t73 107.5t107.5 71.5t132.5 26.5q70 0 131.5 -26.5 t107.5 -71.5t72.5 -107.5t26.5 -132.5q0 -72 -26.5 -133t-72.5 -106t-107.5 -72t-131.5 -27q-72 0 -133 27t-107 72t-73 106t-27 133zM305 915h31v193h31l182 -193h39l-182 193h71q41 0 73 29t32 82q0 49 -29 80.5t-76 31.5h-172v-416zM338 1139v161h137q33 0 54.5 -23 t21.5 -58q0 -37 -20.5 -58.5t-55.5 -21.5h-137z" />
<glyph unicode="&#xaf;" horiz-adv-x="768" d="M113 1311h544v45h-544v-45z" />
<glyph unicode="&#xb0;" horiz-adv-x="425" d="M86 1219q0 -55 40 -95.5t95 -40.5t95 40.5t40 95.5t-40 95t-95 40t-95 -40t-40 -95zM111 1219q0 47 31.5 78.5t78.5 31.5t79 -31.5t32 -78.5t-32 -79t-79 -32t-78.5 32t-31.5 79z" />
<glyph unicode="&#xb1;" horiz-adv-x="737" d="M78 780h256v-256h84v256h256v82h-256v256h-82v-256h-258v-82zM111 371h536v82h-536v-82z" />
<glyph unicode="&#xb2;" horiz-adv-x="655" d="M176 772h313v227q0 16 -6 17q-6 0 -8 -23q-2 -20 -3 -44.5t-8 -46t-22.5 -36t-44.5 -14.5h-182q27 37 69 82t89 98q20 23 42.5 49.5t41 57t30 62.5t11.5 67q0 70 -49.5 108.5t-114.5 38.5q-41 0 -69.5 -13t-46 -33.5t-26 -43t-8.5 -41.5q0 -35 17.5 -49t36.5 -14 q23 0 39 15t16 44q0 31 -16 46t-39 15q-4 0 -8.5 -1t-8.5 -1q10 23 38 42.5t75 19.5q45 0 71.5 -34t26.5 -97q0 -123 -80 -221q-49 -61 -98 -121t-78 -103v-53z" />
<glyph unicode="&#xb3;" horiz-adv-x="655" d="M201 883q0 -39 39 -71t96 -32q78 0 125 52.5t47 132.5q0 35 -12.5 62.5t-31 48t-40 33.5t-39.5 19q18 0 38.5 12.5t38 33t29 48t11.5 56.5q0 72 -46 113t-112 41q-59 0 -95 -35t-36 -72q0 -20 10 -35.5t33 -15.5t35 14.5t12 32.5q0 16 -9 30.5t-32 14.5h-10q-2 -2 -6 -2 h-2q0 6 25.5 29.5t72.5 23.5q45 0 65.5 -31.5t20.5 -109.5q0 -66 -25.5 -102.5t-72.5 -36.5q-14 0 -37 2t-33 2t-10 -11q0 -10 10 -10t32.5 2t37.5 2q53 0 79.5 -37.5t26.5 -121.5q0 -78 -21.5 -124t-78.5 -46q-37 0 -61.5 14t-38.5 33q12 -4 16 -4q20 0 34.5 12t14.5 35 t-14.5 38t-36.5 15q-23 0 -36 -16.5t-13 -38.5z" />
<glyph unicode="&#xb4;" horiz-adv-x="413" d="M33 1116l33 -20l309 311h-144z" />
<glyph unicode="&#xb5;" horiz-adv-x="655" d="M78 690h524v29h-524v-29zM176 -8h313v227q0 16 -6 17q-6 0 -8 -23q-2 -20 -3 -45t-8 -46.5t-22.5 -35.5t-44.5 -14h-182q27 37 69 82t89 98q20 23 42.5 49.5t41 57t30 62.5t11.5 66q0 70 -49.5 109t-114.5 39q-41 0 -69.5 -13.5t-46 -34t-26 -43t-8.5 -40.5 q0 -35 17.5 -49.5t36.5 -14.5q23 0 39 15.5t16 44.5q0 31 -16 46t-39 15q-4 0 -8.5 -1t-8.5 -1q10 23 38 42.5t75 19.5q45 0 71.5 -34t26.5 -98q0 -123 -80 -221q-49 -61 -98 -120.5t-78 -102.5v-53zM231 1382l72 11v-611h-67v-10h213v10h-70v629l-6 4l-142 -22v-11z" />
<glyph unicode="&#xb6;" horiz-adv-x="1228" d="M129 1057q0 -92 30.5 -157.5t82 -108.5t120 -62.5t146.5 -19.5h113v-902l102 -2v1567h147v-1567l103 2v1565h164v31h-629q-78 0 -146.5 -19.5t-120 -61.5t-82 -107.5t-30.5 -157.5z" />
<glyph unicode="&#xb7;" horiz-adv-x="491" d="M147 686q0 -45 32 -76.5t77 -31.5t77 31.5t32 76.5t-32 77t-77 32t-77 -32t-32 -77z" />
<glyph unicode="&#xb8;" horiz-adv-x="681" d="M170 -223q0 -10 6 -19q25 -37 55.5 -59.5t75.5 -22.5q63 0 94 32t31 77q0 53 -33.5 81t-58.5 36l18 98h-45l-24 -111q27 -10 45 -29.5t18 -56.5q0 -29 -16.5 -48t-56.5 -19q-20 0 -42 9t-38 28q-12 14 -21 14q-8 0 -8 -10z" />
<glyph unicode="&#xb9;" horiz-adv-x="655" d="M231 1382l72 11v-611h-67v-10h213v10h-70v629l-6 4l-142 -22v-11z" />
<glyph unicode="&#xba;" horiz-adv-x="626" d="M94 627h473v24h-473v-24zM102 1010q0 -53 14.5 -103.5t42 -90.5t70.5 -64.5t99 -24.5q57 0 99 24.5t69.5 64.5t42 90t14.5 104q0 51 -14.5 101t-42 90t-69.5 63.5t-99 23.5q-55 0 -98.5 -23.5t-71 -63.5t-42 -90t-14.5 -101zM207 979v57q0 70 8 115t23.5 71.5t38 37 t51.5 10.5t51 -10.5t37.5 -37t24 -71.5t8.5 -115v-57q0 -70 -7.5 -115t-23 -70.5t-38 -35.5t-52.5 -10q-31 0 -53.5 10t-38 35.5t-22.5 70.5t-7 115z" />
<glyph unicode="&#xbb;" horiz-adv-x="788" d="M94 221h58l305 303l-310 305h-53l238 -305zM371 221h57l305 303l-309 305h-53l237 -305z" />
<glyph unicode="&#xbc;" horiz-adv-x="655" d="M100 700h494v25h-494v-25zM154 199h178v-189h-66v-12h201v12h-66v189h72v-93h12v203h-12v-98h-72v303q-16 -41 -34.5 -64.5t-34.5 -39.5v-199h-168q12 16 31.5 43t40 57.5t40 60t31.5 54.5q23 37 53.5 93t47.5 143h-66q-10 -57 -27.5 -115t-40.5 -111 q-10 -25 -26.5 -54.5t-32.5 -60t-32.5 -58t-28.5 -46.5v-18zM231 1382l72 11v-611h-67v-10h213v10h-70v629l-6 4l-142 -22v-11z" />
<glyph unicode="&#xbd;" horiz-adv-x="655" d="M78 690h524v29h-524v-29zM176 -8h313v227q0 16 -6 17q-6 0 -8 -23q-2 -20 -3 -45t-8 -46.5t-22.5 -35.5t-44.5 -14h-182q27 37 69 82t89 98q20 23 42.5 49.5t41 57t30 62.5t11.5 66q0 70 -49.5 109t-114.5 39q-41 0 -69.5 -13.5t-46 -34t-26 -43t-8.5 -40.5 q0 -35 17.5 -49.5t36.5 -14.5q23 0 39 15.5t16 44.5q0 31 -16 46t-39 15q-4 0 -8.5 -1t-8.5 -1q10 23 38 42.5t75 19.5q45 0 71.5 -34t26.5 -98q0 -123 -80 -221q-49 -61 -98 -120.5t-78 -102.5v-53zM231 1382l72 11v-611h-67v-10h213v10h-70v629l-6 4l-142 -22v-11z" />
<glyph unicode="&#xbe;" horiz-adv-x="655" d="M100 700h494v25h-494v-25zM154 199h178v-189h-66v-12h201v12h-66v189h72v-93h12v203h-12v-98h-72v303q-16 -41 -34.5 -64.5t-34.5 -39.5v-199h-168q12 16 31.5 43t40 57.5t40 60t31.5 54.5q23 37 53.5 93t47.5 143h-66q-10 -57 -27.5 -115t-40.5 -111 q-10 -25 -26.5 -54.5t-32.5 -60t-32.5 -58t-28.5 -46.5v-18zM201 883q0 -39 39 -71t96 -32q78 0 125 52.5t47 132.5q0 35 -12.5 62.5t-31 48t-40 33.5t-39.5 19q18 0 38.5 12.5t38 33t29 48t11.5 56.5q0 72 -46 113t-112 41q-59 0 -95 -35t-36 -72q0 -20 10 -35.5t33 -15.5 t35 14.5t12 32.5q0 16 -9 30.5t-32 14.5h-10q-2 -2 -6 -2h-2q0 6 25.5 29.5t72.5 23.5q45 0 65.5 -31.5t20.5 -109.5q0 -66 -25.5 -102.5t-72.5 -36.5q-14 0 -37 2t-33 2t-10 -11q0 -10 10 -10t32.5 2t37.5 2q53 0 79.5 -37.5t26.5 -121.5q0 -78 -21.5 -124t-78.5 -46 q-37 0 -61.5 14t-38.5 33q12 -4 16 -4q20 0 34.5 12t14.5 35t-14.5 38t-36.5 15q-23 0 -36 -16.5t-13 -38.5z" />
<glyph unicode="&#xbf;" horiz-adv-x="727" d="M53 25q0 -57 19.5 -109.5t57.5 -92.5t91 -63.5t121 -23.5q72 0 126 21.5t90 57t54.5 84t18.5 101.5q0 86 -44 138t-114 52q-66 0 -101.5 -40.5t-35.5 -98.5q0 -25 8 -52.5t27 -55.5q8 -14 20 -15q14 0 15 15q0 4 -1.5 7l-5.5 11q-27 45 -26 90q0 49 27.5 76t70.5 27 q53 0 86 -42t33 -112q0 -98 -57.5 -155.5t-147.5 -57.5q-80 0 -127 59.5t-47 147.5q0 92 44 176t93 158q55 82 91 152.5t36 164.5q0 84 -43 124t-98 40q-53 0 -90 -37t-37 -90q0 -31 16.5 -62.5t50.5 -54.5q14 -8 25 -8q10 0 10 10t-16 21q-51 37 -51 94q0 37 27.5 62.5 t64.5 25.5q43 0 71.5 -31.5t28.5 -93.5q0 -90 -43 -160.5t-121 -140.5q-61 -53 -102 -90t-66.5 -72t-37 -71.5t-11.5 -85.5zM233 1049q0 -45 32 -77t77 -32t77 32t32 77t-32 76.5t-77 31.5t-77 -31.5t-32 -76.5z" />
<glyph unicode="&#xc0;" horiz-adv-x="1069" d="M35 0h358v37h-182l102 395h314l108 -395h-168v-37h477v37h-141l-358 1388h-17l-354 -1388h-139v-37zM324 469l147 586l150 -586h-297zM330 1704l235 -238l23 17l-144 221h-114z" />
<glyph unicode="&#xc1;" horiz-adv-x="1069" d="M35 0h358v37h-182l102 395h314l108 -395h-168v-37h477v37h-141l-358 1388h-17l-354 -1388h-139v-37zM324 469l147 586l150 -586h-297zM487 1483l23 -17l235 238h-114z" />
<glyph unicode="&#xc2;" horiz-adv-x="1069" d="M35 0h358v37h-182l102 395h314l108 -395h-168v-37h477v37h-141l-358 1388h-17l-354 -1388h-139v-37zM324 469l147 586l150 -586h-297zM324 1475h38l173 116l170 -116h40l-200 198h-23z" />
<glyph unicode="&#xc3;" horiz-adv-x="1069" d="M35 0h358v37h-182l102 395h314l108 -395h-168v-37h477v37h-141l-358 1388h-17l-354 -1388h-139v-37zM283 1503q0 -27 14 -26q12 0 14 22q4 29 22.5 43t43.5 14q27 0 50.5 -13t51.5 -27q41 -20 83 -26.5t83 -6.5q43 0 69.5 12t42 29.5t20.5 36t5 32.5q0 25 -16 25 q-14 0 -14 -21q0 -23 -10 -36t-35 -13q-27 0 -55.5 12.5t-53.5 24.5q-33 16 -78 25.5t-86 9.5q-47 0 -76.5 -14.5t-46 -33t-22.5 -37.5t-6 -32zM324 469l147 586l150 -586h-297z" />
<glyph unicode="&#xc4;" horiz-adv-x="1069" d="M35 0h358v37h-182l102 395h314l108 -395h-168v-37h477v37h-141l-358 1388h-17l-354 -1388h-139v-37zM309 1554q0 -35 25.5 -60.5t60.5 -25.5q37 0 62.5 25.5t25.5 60.5t-25.5 60.5t-62.5 25.5q-35 0 -60.5 -25.5t-25.5 -60.5zM324 469l147 586l150 -586h-297zM582 1554 q0 -35 25.5 -60.5t62.5 -25.5q35 0 60.5 25.5t25.5 60.5t-25.5 60.5t-60.5 25.5q-37 0 -62.5 -25.5t-25.5 -60.5z" />
<glyph unicode="&#xc5;" horiz-adv-x="1069" d="M35 0h358v37h-182l102 395h314l108 -395h-168v-37h477v37h-141l-358 1388h-17l-354 -1388h-139v-37zM324 469l147 586l150 -586h-297zM416 1569q0 -49 35.5 -85t85.5 -36q49 0 84.5 36t35.5 85t-35.5 85t-84.5 36t-85 -36t-36 -85zM436 1569q0 41 30 70.5t71 29.5 t70.5 -29.5t29.5 -70.5t-29.5 -71t-70.5 -30t-71 30t-30 71z" />
<glyph unicode="&#xc6;" horiz-adv-x="1548" d="M-8 0h352v33h-174l297 563h369v-563h-136v-33h758q25 0 36 10t11 39v352q0 31 -16 31t-21 -39q-8 -66 -18 -129t-34.5 -113.5t-71 -82t-121.5 -31.5h-230v684h142q37 0 58 -22.5t32.5 -58.5t15.5 -81l8 -90q0 -23 21 -23q16 0 16 23v539q0 25 -16 24q-20 0 -21 -22 q-4 -45 -8 -90.5t-15.5 -81t-33 -58t-57.5 -22.5h-142v612h252q51 0 84 -20.5t51.5 -57.5t27.5 -90t15 -119q2 -35 21 -34q10 0 13 6t3 28v277q0 47 -49 47h-713v-33h140l-711 -1341h-135v-33zM485 631l351 663v-663h-351z" />
<glyph unicode="&#xc7;" horiz-adv-x="1013" d="M70 690q0 -131 29.5 -256t88 -225t146.5 -166t207 -76l-35 -108q27 -8 48 -26.5t21 -59.5q0 -47 -23.5 -65.5t-51.5 -18.5q-23 0 -47 12q-4 2 -11 2q-12 0 -12 -10q0 -8 16 -19q14 -10 34 -16t42 -6q59 0 90 30.5t31 81.5q0 49 -27.5 75t-56.5 36l27 90q49 0 89 14.5 t70.5 35t53 43t37.5 40.5l75 -110q14 -20 23 -21q10 0 10 27v391q0 37 -16 37t-21 -31q-12 -68 -37.5 -137.5t-65.5 -125.5t-94.5 -91t-127.5 -35q-154 0 -241 156.5t-87 476.5v117q0 334 86 484t244 150q63 0 115.5 -29.5t91 -77.5t64.5 -109.5t36 -127.5q2 -20 18 -20 q14 0 15 20v373q0 16 -13 17q-6 0 -10 -5.5t-8 -9.5l-68 -112q-16 20 -37.5 41.5t-51 38t-66.5 27.5t-86 11q-129 0 -225.5 -63.5t-161 -165.5t-96 -234.5t-31.5 -269.5z" />
<glyph unicode="&#xc8;" d="M72 1370h125v-1333h-123v-37h745q25 0 36 10t11 39v352q0 31 -16 31t-21 -39q-8 -66 -18 -129t-34.5 -113.5t-71 -82t-121.5 -31.5h-230v684h142q37 0 58 -22.5t32.5 -58.5t15.5 -81l8 -90q0 -23 21 -23q16 0 16 23v539q0 25 -16 24q-20 0 -21 -22q-4 -45 -8 -90.5 t-15.5 -81t-33 -58t-57.5 -22.5h-142v612h252q51 0 84 -20.5t51.5 -57.5t27.5 -90t15 -119q2 -35 21 -34q10 0 13 6t3 28v277q0 47 -43 47h-706v-37zM297 1704l235 -238l23 17l-143 221h-115z" />
<glyph unicode="&#xc9;" d="M72 1370h125v-1333h-123v-37h745q25 0 36 10t11 39v352q0 31 -16 31t-21 -39q-8 -66 -18 -129t-34.5 -113.5t-71 -82t-121.5 -31.5h-230v684h142q37 0 58 -22.5t32.5 -58.5t15.5 -81l8 -90q0 -23 21 -23q16 0 16 23v539q0 25 -16 24q-20 0 -21 -22q-4 -45 -8 -90.5 t-15.5 -81t-33 -58t-57.5 -22.5h-142v612h252q51 0 84 -20.5t51.5 -57.5t27.5 -90t15 -119q2 -35 21 -34q10 0 13 6t3 28v277q0 47 -43 47h-706v-37zM465 1483l22 -17l236 238h-115z" />
<glyph unicode="&#xca;" d="M72 1370h125v-1333h-123v-37h745q25 0 36 10t11 39v352q0 31 -16 31t-21 -39q-8 -66 -18 -129t-34.5 -113.5t-71 -82t-121.5 -31.5h-230v684h142q37 0 58 -22.5t32.5 -58.5t15.5 -81l8 -90q0 -23 21 -23q16 0 16 23v539q0 25 -16 24q-20 0 -21 -22q-4 -45 -8 -90.5 t-15.5 -81t-33 -58t-57.5 -22.5h-142v612h252q51 0 84 -20.5t51.5 -57.5t27.5 -90t15 -119q2 -35 21 -34q10 0 13 6t3 28v277q0 47 -43 47h-706v-37zM262 1475h39l172 116l170 -116h41l-201 198h-22z" />
<glyph unicode="&#xcb;" d="M72 1370h125v-1333h-123v-37h745q25 0 36 10t11 39v352q0 31 -16 31t-21 -39q-8 -66 -18 -129t-34.5 -113.5t-71 -82t-121.5 -31.5h-230v684h142q37 0 58 -22.5t32.5 -58.5t15.5 -81l8 -90q0 -23 21 -23q16 0 16 23v539q0 25 -16 24q-20 0 -21 -22q-4 -45 -8 -90.5 t-15.5 -81t-33 -58t-57.5 -22.5h-142v612h252q51 0 84 -20.5t51.5 -57.5t27.5 -90t15 -119q2 -35 21 -34q10 0 13 6t3 28v277q0 47 -43 47h-706v-37zM270 1554q0 -35 26 -60.5t60 -25.5q37 0 62.5 25.5t25.5 60.5t-25.5 60.5t-62.5 25.5q-35 0 -60.5 -25.5t-25.5 -60.5z M543 1554q0 -35 25.5 -60.5t62.5 -25.5q35 0 60.5 25.5t25.5 60.5t-25.5 60.5t-60.5 25.5q-37 0 -62.5 -25.5t-25.5 -60.5z" />
<glyph unicode="&#xcc;" horiz-adv-x="557" d="M51 1704l236 -238l22 17l-143 221h-115zM84 0h403v37h-122v1333h116v37h-397v-37h123v-1333h-123v-37z" />
<glyph unicode="&#xcd;" horiz-adv-x="557" d="M84 0h403v37h-122v1333h116v37h-397v-37h123v-1333h-123v-37zM264 1483l23 -17l235 238h-114z" />
<glyph unicode="&#xce;" horiz-adv-x="557" d="M68 1473h36l175 116l170 -116h40l-200 198h-23zM84 0h403v37h-122v1333h116v37h-397v-37h123v-1333h-123v-37z" />
<glyph unicode="&#xcf;" horiz-adv-x="557" d="M51 1554q0 -35 25.5 -60.5t60.5 -25.5q37 0 62.5 25.5t25.5 60.5t-25.5 60.5t-62.5 25.5q-35 0 -60.5 -25.5t-25.5 -60.5zM84 0h403v37h-122v1333h116v37h-397v-37h123v-1333h-123v-37zM324 1554q0 -35 25.5 -60.5t62.5 -25.5q35 0 60.5 25.5t25.5 60.5t-26 60.5 t-60 25.5q-37 0 -62.5 -25.5t-25.5 -60.5z" />
<glyph unicode="&#xd0;" horiz-adv-x="1056" d="M57 655h129v-618h-123v-37h449q233 0 363.5 180t130.5 525q0 160 -35 289.5t-100.5 222t-157.5 141.5t-205 49h-445v-37h123v-633h-129v-82zM344 37v618h209v82h-209v633h145q172 0 255 -152.5t83 -447.5v-131q0 -283 -79.5 -442.5t-249.5 -159.5h-154z" />
<glyph unicode="&#xd1;" horiz-adv-x="1038" d="M45 0h272v37h-122v1276l626 -1327h66v1384h112v37h-272v-37h123v-1026l-502 1063h-303v-37h113v-1333h-113v-37zM266 1503q0 -27 15 -26q12 0 14 22q4 29 22.5 43t42.5 14q27 0 50.5 -13t52.5 -27q41 -20 83 -26.5t83 -6.5q43 0 69.5 12t42 29.5t20.5 36t5 32.5 q0 25 -16 25q-14 0 -15 -21q0 -23 -10 -36t-35 -13q-27 0 -55.5 12.5t-52.5 24.5q-33 16 -78 25.5t-86 9.5q-47 0 -77 -14.5t-46 -33t-22.5 -37.5t-6.5 -32z" />
<glyph unicode="&#xd2;" horiz-adv-x="1122" d="M61 698q0 -137 32 -268t94.5 -234.5t156.5 -166t219 -62.5t219.5 62.5t156.5 166t93 234.5t31 268t-31 268.5t-93 235t-156.5 166t-219.5 62.5t-219 -62.5t-156.5 -166t-94.5 -235t-32 -268.5zM248 631v133q0 330 83 479.5t232 149.5q63 0 120.5 -36t100.5 -113 t69 -195.5t26 -284.5v-133q0 -317 -89.5 -472t-226.5 -155q-63 0 -120.5 38t-100.5 116t-68.5 195.5t-25.5 277.5zM330 1704l235 -238l23 17l-144 221h-114z" />
<glyph unicode="&#xd3;" horiz-adv-x="1122" d="M61 698q0 -137 32 -268t94.5 -234.5t156.5 -166t219 -62.5t219.5 62.5t156.5 166t93 234.5t31 268t-31 268.5t-93 235t-156.5 166t-219.5 62.5t-219 -62.5t-156.5 -166t-94.5 -235t-32 -268.5zM248 631v133q0 330 83 479.5t232 149.5q63 0 120.5 -36t100.5 -113 t69 -195.5t26 -284.5v-133q0 -317 -89.5 -472t-226.5 -155q-63 0 -120.5 38t-100.5 116t-68.5 195.5t-25.5 277.5zM514 1483l23 -17l235 238h-115z" />
<glyph unicode="&#xd4;" horiz-adv-x="1122" d="M61 698q0 -137 32 -268t94.5 -234.5t156.5 -166t219 -62.5t219.5 62.5t156.5 166t93 234.5t31 268t-31 268.5t-93 235t-156.5 166t-219.5 62.5t-219 -62.5t-156.5 -166t-94.5 -235t-32 -268.5zM248 631v133q0 330 83 479.5t232 149.5q63 0 120.5 -36t100.5 -113 t69 -195.5t26 -284.5v-133q0 -317 -89.5 -472t-226.5 -155q-63 0 -120.5 38t-100.5 116t-68.5 195.5t-25.5 277.5zM348 1475h39l172 116l170 -116h41l-201 198h-22z" />
<glyph unicode="&#xd5;" horiz-adv-x="1122" d="M61 698q0 -137 32 -268t94.5 -234.5t156.5 -166t219 -62.5t219.5 62.5t156.5 166t93 234.5t31 268t-31 268.5t-93 235t-156.5 166t-219.5 62.5t-219 -62.5t-156.5 -166t-94.5 -235t-32 -268.5zM248 631v133q0 330 83 479.5t232 149.5q63 0 120.5 -36t100.5 -113 t69 -195.5t26 -284.5v-133q0 -317 -89.5 -472t-226.5 -155q-63 0 -120.5 38t-100.5 116t-68.5 195.5t-25.5 277.5zM309 1503q0 -27 15 -26q12 0 14 22q4 29 22.5 43t42.5 14q27 0 50.5 -13t52.5 -27q41 -20 83 -26.5t83 -6.5q43 0 69.5 12t42 29.5t20.5 36t5 32.5 q0 25 -16 25q-14 0 -15 -21q0 -23 -10 -36t-35 -13q-27 0 -55.5 12.5t-52.5 24.5q-33 16 -78 25.5t-86 9.5q-47 0 -77 -14.5t-46 -33t-22.5 -37.5t-6.5 -32z" />
<glyph unicode="&#xd6;" horiz-adv-x="1122" d="M61 698q0 -137 32 -268t94.5 -234.5t156.5 -166t219 -62.5t219.5 62.5t156.5 166t93 234.5t31 268t-31 268.5t-93 235t-156.5 166t-219.5 62.5t-219 -62.5t-156.5 -166t-94.5 -235t-32 -268.5zM248 631v133q0 330 83 479.5t232 149.5q63 0 120.5 -36t100.5 -113 t69 -195.5t26 -284.5v-133q0 -317 -89.5 -472t-226.5 -155q-63 0 -120.5 38t-100.5 116t-68.5 195.5t-25.5 277.5zM330 1554q0 -35 25.5 -60.5t60.5 -25.5q37 0 62.5 25.5t25.5 60.5t-25.5 60.5t-62.5 25.5q-35 0 -60.5 -25.5t-25.5 -60.5zM602 1554q0 -35 25.5 -60.5 t62.5 -25.5q35 0 60.5 25.5t25.5 60.5t-25.5 60.5t-60.5 25.5q-37 0 -62.5 -25.5t-25.5 -60.5z" />
<glyph unicode="&#xd7;" horiz-adv-x="917" d="M141 16l29 -16l236 383l223 -383l131 68l-256 440l217 350l-29 16l-207 -335l-196 335l-129 -67l227 -391z" />
<glyph unicode="&#xd8;" horiz-adv-x="1101" d="M61 698q0 -96 15.5 -188t44.5 -175t73 -152.5t103 -119.5l-80 -184l35 -14l76 176q102 -74 235 -74q125 0 219.5 62.5t156.5 166t93 234.5t31 268q0 174 -49 334t-148 264l64 152l-35 14l-57 -137q-55 49 -124 77t-151 28q-125 0 -219 -62.5t-156.5 -166t-94.5 -234.5 t-32 -269zM248 631v133q0 330 82.5 479.5t232.5 149.5q68 0 128.5 -40t103.5 -126l-457 -1063q-41 78 -65.5 194.5t-24.5 272.5zM362 125l453 1055q29 -76 46.5 -178.5t17.5 -237.5v-133q0 -317 -89.5 -472t-226.5 -155q-119 0 -201 121z" />
<glyph unicode="&#xd9;" horiz-adv-x="1009" d="M37 1370h123v-983q0 -184 88 -294.5t258 -110.5q182 0 265 103t83 302v983h123v37h-293v-37h133v-981q0 -100 -21.5 -168.5t-56 -111.5t-80 -61.5t-90.5 -18.5q-53 0 -100 16t-81 58t-53.5 115t-19.5 188v964h134v37h-412v-37zM317 1704l236 -238l22 17l-143 221h-115z " />
<glyph unicode="&#xda;" horiz-adv-x="1009" d="M37 1370h123v-983q0 -184 88 -294.5t258 -110.5q182 0 265 103t83 302v983h123v37h-293v-37h133v-981q0 -100 -21.5 -168.5t-56 -111.5t-80 -61.5t-90.5 -18.5q-53 0 -100 16t-81 58t-53.5 115t-19.5 188v964h134v37h-412v-37zM530 1483l23 -17l235 238h-114z" />
<glyph unicode="&#xdb;" horiz-adv-x="1009" d="M37 1370h123v-983q0 -184 88 -294.5t258 -110.5q182 0 265 103t83 302v983h123v37h-293v-37h133v-981q0 -100 -21.5 -168.5t-56 -111.5t-80 -61.5t-90.5 -18.5q-53 0 -100 16t-81 58t-53.5 115t-19.5 188v964h134v37h-412v-37zM324 1475h38l173 116l170 -116h40l-200 198 h-23z" />
<glyph unicode="&#xdc;" horiz-adv-x="1009" d="M37 1370h123v-983q0 -184 88 -294.5t258 -110.5q182 0 265 103t83 302v983h123v37h-293v-37h133v-981q0 -100 -21.5 -168.5t-56 -111.5t-80 -61.5t-90.5 -18.5q-53 0 -100 16t-81 58t-53.5 115t-19.5 188v964h134v37h-412v-37zM315 1554q0 -35 26 -60.5t60 -25.5 q37 0 62.5 25.5t25.5 60.5t-25.5 60.5t-62.5 25.5q-35 0 -60.5 -25.5t-25.5 -60.5zM588 1554q0 -35 25.5 -60.5t62.5 -25.5q35 0 60.5 25.5t25.5 60.5t-25.5 60.5t-60.5 25.5q-37 0 -62.5 -25.5t-25.5 -60.5z" />
<glyph unicode="&#xdd;" horiz-adv-x="1015" d="M37 1370h106l310 -680v-653h-107v-37h369v37h-107v698l264 635h111v37h-266v-37h117l-248 -598l-271 598h109v37h-387v-37zM547 1483l22 -17l236 238h-115z" />
<glyph unicode="&#xde;" horiz-adv-x="878" d="M51 0h436v37h-139v311h158q66 0 127 22.5t108 69.5t76 120t29 173q0 86 -25.5 155.5t-72 119t-112 77t-144.5 27.5h-144v258h139v37h-436v-37h139v-1333h-139v-37zM348 385v690h123q49 0 90 -16.5t68.5 -56t43 -105.5t15.5 -164t-15.5 -164.5t-44 -107.5t-68.5 -58.5 t-89 -17.5h-123z" />
<glyph unicode="&#xdf;" horiz-adv-x="997" d="M57 0h389v33h-122v987q0 141 45 201.5t141 60.5q57 0 103 -21.5t78 -58.5t48.5 -87t16.5 -105q0 -98 -47 -173t-125 -139q-29 -23 -40.5 -47t-11.5 -47q0 -27 15.5 -49.5t52.5 -32.5q47 -16 94 -41.5t84 -62.5t60.5 -84t23.5 -105q0 -100 -53 -159.5t-139 -59.5 q-23 0 -45.5 3t-38.5 10q-12 6 -13 10q0 4 11 8q16 6 27.5 20.5t11.5 42.5q0 31 -18.5 49.5t-47.5 18.5q-27 0 -45 -19.5t-18 -56.5q0 -45 36.5 -78.5t131.5 -33.5q137 0 199.5 87t62.5 224q0 78 -25 135t-62.5 99t-83.5 70t-91 48q-16 8 -22.5 13.5t-6.5 13.5q0 23 31 51 q27 23 52 50.5t45.5 61t33 76.5t12.5 97q0 141 -75 222t-222 81q-160 0 -245 -96.5t-85 -270.5v-198h-123v-33h123v-682h-123v-33z" />
<glyph unicode="&#xe0;" horiz-adv-x="804" d="M68 201q0 -113 58 -169.5t140 -56.5q80 0 132.5 39t90.5 88q0 -20 5.5 -42.5t18.5 -42t37.5 -32t61.5 -12.5q49 0 80 18.5t50.5 50.5t28.5 73t13 84v8q0 20 -10 20q-12 0 -14 -24q-10 -61 -21.5 -96t-25 -53.5t-25.5 -23.5t-22 -5q-39 0 -39 59v512q0 66 -10.5 122 t-39 97t-78.5 63.5t-130 22.5q-63 0 -107.5 -16.5t-72 -40t-41 -49t-13.5 -45.5q0 -37 21.5 -56.5t50.5 -19.5q35 0 53.5 20.5t18.5 48.5q0 20 -9.5 38t-27.5 28q-6 2 -6 10q0 14 33.5 31.5t101.5 17.5q59 0 85.5 -37.5t26.5 -103.5v-152q-53 -41 -105 -57t-112 -35 q-57 -18 -95 -50t-61.5 -71.5t-32.5 -81.5t-9 -79zM100 1407l310 -311l32 20l-198 291h-144zM217 209v35q0 37 6 73.5t21.5 67.5t41 54.5t66.5 35.5q37 10 76 28.5t55 31.5v-351q0 -25 -15 -52.5t-38.5 -51t-51 -39.5t-52.5 -16q-63 0 -86 53t-23 131z" />
<glyph unicode="&#xe1;" horiz-adv-x="804" d="M68 201q0 -113 58 -169.5t140 -56.5q80 0 132.5 39t90.5 88q0 -20 5.5 -42.5t18.5 -42t37.5 -32t61.5 -12.5q49 0 80 18.5t50.5 50.5t28.5 73t13 84v8q0 20 -10 20q-12 0 -14 -24q-10 -61 -21.5 -96t-25 -53.5t-25.5 -23.5t-22 -5q-39 0 -39 59v512q0 66 -10.5 122 t-39 97t-78.5 63.5t-130 22.5q-63 0 -107.5 -16.5t-72 -40t-41 -49t-13.5 -45.5q0 -37 21.5 -56.5t50.5 -19.5q35 0 53.5 20.5t18.5 48.5q0 20 -9.5 38t-27.5 28q-6 2 -6 10q0 14 33.5 31.5t101.5 17.5q59 0 85.5 -37.5t26.5 -103.5v-152q-53 -41 -105 -57t-112 -35 q-57 -18 -95 -50t-61.5 -71.5t-32.5 -81.5t-9 -79zM217 209v35q0 37 6 73.5t21.5 67.5t41 54.5t66.5 35.5q37 10 76 28.5t55 31.5v-351q0 -25 -15 -52.5t-38.5 -51t-51 -39.5t-52.5 -16q-63 0 -86 53t-23 131zM328 1116l32 -20l310 311h-144z" />
<glyph unicode="&#xe2;" horiz-adv-x="804" d="M68 201q0 -113 58 -169.5t140 -56.5q80 0 132.5 39t90.5 88q0 -20 5.5 -42.5t18.5 -42t37.5 -32t61.5 -12.5q49 0 80 18.5t50.5 50.5t28.5 73t13 84v8q0 20 -10 20q-12 0 -14 -24q-10 -61 -21.5 -96t-25 -53.5t-25.5 -23.5t-22 -5q-39 0 -39 59v512q0 66 -10.5 122 t-39 97t-78.5 63.5t-130 22.5q-63 0 -107.5 -16.5t-72 -40t-41 -49t-13.5 -45.5q0 -37 21.5 -56.5t50.5 -19.5q35 0 53.5 20.5t18.5 48.5q0 20 -9.5 38t-27.5 28q-6 2 -6 10q0 14 33.5 31.5t101.5 17.5q59 0 85.5 -37.5t26.5 -103.5v-152q-53 -41 -105 -57t-112 -35 q-57 -18 -95 -50t-61.5 -71.5t-32.5 -81.5t-9 -79zM121 1159h47l215 146l213 -146h51l-250 248h-28zM217 209v35q0 37 6 73.5t21.5 67.5t41 54.5t66.5 35.5q37 10 76 28.5t55 31.5v-351q0 -25 -15 -52.5t-38.5 -51t-51 -39.5t-52.5 -16q-63 0 -86 53t-23 131z" />
<glyph unicode="&#xe3;" horiz-adv-x="804" d="M68 201q0 -113 58 -169.5t140 -56.5q80 0 132.5 39t90.5 88q0 -20 5.5 -42.5t18.5 -42t37.5 -32t61.5 -12.5q49 0 80 18.5t50.5 50.5t28.5 73t13 84v8q0 20 -10 20q-12 0 -14 -24q-10 -61 -21.5 -96t-25 -53.5t-25.5 -23.5t-22 -5q-39 0 -39 59v512q0 66 -10.5 122 t-39 97t-78.5 63.5t-130 22.5q-63 0 -107.5 -16.5t-72 -40t-41 -49t-13.5 -45.5q0 -37 21.5 -56.5t50.5 -19.5q35 0 53.5 20.5t18.5 48.5q0 20 -9.5 38t-27.5 28q-6 2 -6 10q0 14 33.5 31.5t101.5 17.5q59 0 85.5 -37.5t26.5 -103.5v-152q-53 -41 -105 -57t-112 -35 q-57 -18 -95 -50t-61.5 -71.5t-32.5 -81.5t-9 -79zM111 1231q0 -29 16 -29q12 0 16 25q4 31 24.5 47t49.5 16t55.5 -14t57.5 -31q47 -23 93 -30t91 -7q47 0 77 13.5t47 33t23.5 41t6.5 37.5q0 27 -19 27q-16 0 -16 -23q0 -25 -11 -40t-40 -15t-61 13.5t-60 27.5 q-35 16 -84 27.5t-96 11.5q-53 0 -86 -15.5t-51.5 -37t-25.5 -44t-7 -34.5zM217 209v35q0 37 6 73.5t21.5 67.5t41 54.5t66.5 35.5q37 10 76 28.5t55 31.5v-351q0 -25 -15 -52.5t-38.5 -51t-51 -39.5t-52.5 -16q-63 0 -86 53t-23 131z" />
<glyph unicode="&#xe4;" horiz-adv-x="804" d="M68 201q0 -113 58 -169.5t140 -56.5q80 0 132.5 39t90.5 88q0 -20 5.5 -42.5t18.5 -42t37.5 -32t61.5 -12.5q49 0 80 18.5t50.5 50.5t28.5 73t13 84v8q0 20 -10 20q-12 0 -14 -24q-10 -61 -21.5 -96t-25 -53.5t-25.5 -23.5t-22 -5q-39 0 -39 59v512q0 66 -10.5 122 t-39 97t-78.5 63.5t-130 22.5q-63 0 -107.5 -16.5t-72 -40t-41 -49t-13.5 -45.5q0 -37 21.5 -56.5t50.5 -19.5q35 0 53.5 20.5t18.5 48.5q0 20 -9.5 38t-27.5 28q-6 2 -6 10q0 14 33.5 31.5t101.5 17.5q59 0 85.5 -37.5t26.5 -103.5v-152q-53 -41 -105 -57t-112 -35 q-57 -18 -95 -50t-61.5 -71.5t-32.5 -81.5t-9 -79zM154 1292q0 -41 27.5 -68.5t68.5 -27.5t68.5 27.5t27.5 68.5t-27.5 69t-68.5 28t-68.5 -28t-27.5 -69zM217 209v35q0 37 6 73.5t21.5 67.5t41 54.5t66.5 35.5q37 10 76 28.5t55 31.5v-351q0 -25 -15 -52.5t-38.5 -51 t-51 -39.5t-52.5 -16q-63 0 -86 53t-23 131zM457 1292q0 -41 27.5 -68.5t68.5 -27.5t68.5 27.5t27.5 68.5t-27.5 69t-68.5 28t-68.5 -28t-27.5 -69z" />
<glyph unicode="&#xe5;" horiz-adv-x="804" d="M68 201q0 -113 58 -169.5t140 -56.5q80 0 132.5 39t90.5 88q0 -20 5.5 -42.5t18.5 -42t37.5 -32t61.5 -12.5q49 0 80 18.5t50.5 50.5t28.5 73t13 84v8q0 20 -10 20q-12 0 -14 -24q-10 -61 -21.5 -96t-25 -53.5t-25.5 -23.5t-22 -5q-39 0 -39 59v512q0 66 -10.5 122 t-39 97t-78.5 63.5t-130 22.5q-63 0 -107.5 -16.5t-72 -40t-41 -49t-13.5 -45.5q0 -37 21.5 -56.5t50.5 -19.5q35 0 53.5 20.5t18.5 48.5q0 20 -9.5 38t-27.5 28q-6 2 -6 10q0 14 33.5 31.5t101.5 17.5q59 0 85.5 -37.5t26.5 -103.5v-152q-53 -41 -105 -57t-112 -35 q-57 -18 -95 -50t-61.5 -71.5t-32.5 -81.5t-9 -79zM217 209v35q0 37 6 73.5t21.5 67.5t41 54.5t66.5 35.5q37 10 76 28.5t55 31.5v-351q0 -25 -15 -52.5t-38.5 -51t-51 -39.5t-52.5 -16q-63 0 -86 53t-23 131zM246 1257q0 -55 40 -95t95 -40t95 40t40 95t-40 95.5t-95 40.5 t-95 -40t-40 -96zM270 1257q0 47 32 79t79 32t79 -31.5t32 -79.5q0 -47 -32 -78.5t-79 -31.5t-79 31.5t-32 78.5z" />
<glyph unicode="&#xe6;" horiz-adv-x="1163" d="M43 201q0 -113 58.5 -169.5t140.5 -56.5q80 0 137 38.5t96 95.5q35 -66 109.5 -101t220.5 -35q121 0 203 63.5t122 180.5q2 6 3 14q0 16 -15 17q-12 0 -18 -19q-80 -223 -295 -223q-106 0 -152.5 75t-46.5 247v110h522q2 10 2 21v28q0 45 -9 117t-44 140.5t-102.5 117.5 t-183.5 49q-74 0 -132.5 -28.5t-101.5 -75.5q-29 45 -79 69.5t-134 24.5q-63 0 -107 -16.5t-72 -40t-41 -49t-13 -45.5q0 -37 21.5 -56.5t49.5 -19.5q35 0 53.5 20.5t18.5 48.5q0 20 -9 38t-28 28q-6 2 -6 10q0 14 34 31.5t101 17.5q59 0 86 -37.5t27 -103.5v-152 q-53 -41 -105.5 -57t-111.5 -35q-57 -18 -95 -50t-62 -71.5t-33 -81.5t-9 -79zM193 209v35q0 37 6 73.5t21.5 67.5t41 54.5t66.5 35.5q37 10 75.5 28.5t55.5 31.5v-351q0 -27 -15.5 -55.5t-39 -51t-51 -37.5t-52.5 -15q-63 0 -85.5 53t-22.5 131zM606 467v156 q0 129 47 192.5t138 63.5q102 0 142 -62.5t40 -193.5v-156h-367z" />
<glyph unicode="&#xe7;" horiz-adv-x="759" d="M41 438q0 -86 22.5 -169t67.5 -148.5t111.5 -107.5t156.5 -44l-26 -82q29 -10 51 -28.5t22 -46.5q0 -57 -59 -58q-35 0 -57 21q-8 8 -17 8q-10 0 -10 -10t14 -25q41 -41 99 -41q45 0 70.5 25.5t25.5 66.5q0 49 -31.5 72t-66.5 31l20 67q115 6 191.5 70.5t101.5 165.5 q2 8 2 14q0 20 -14 21q-10 0 -17 -19q-29 -106 -102.5 -161.5t-175.5 -55.5q-115 0 -159 109.5t-44 324.5q0 238 49 341.5t154 103.5q68 0 102.5 -13.5t34.5 -27.5q0 -10 -10 -19q-16 -14 -25.5 -34.5t-9.5 -40.5q0 -37 25.5 -60.5t66.5 -23.5t63.5 26.5t22.5 61.5 q0 27 -14 55.5t-46 53t-84 39.5t-126 15q-94 0 -165 -40.5t-119 -108.5t-71.5 -154t-23.5 -174z" />
<glyph unicode="&#xe8;" horiz-adv-x="811" d="M63 449q0 -90 23 -175.5t69 -152t114.5 -107.5t160.5 -41q121 0 203 63.5t123 180.5q2 6 2 14q0 16 -15 17q-12 0 -18 -19q-80 -223 -295 -223q-106 0 -152.5 75t-46.5 247v110h523q2 10 2 21v28q0 45 -9.5 117t-44 140.5t-102.5 117.5t-184 49q-88 0 -153.5 -40 t-109.5 -104.5t-67 -148t-23 -169.5zM150 1407l309 -311l33 20l-199 291h-143zM231 467v156q0 129 47.5 192.5t137.5 63.5q102 0 142 -62.5t40 -193.5v-156h-367z" />
<glyph unicode="&#xe9;" horiz-adv-x="811" d="M63 449q0 -90 23 -175.5t69 -152t114.5 -107.5t160.5 -41q121 0 203 63.5t123 180.5q2 6 2 14q0 16 -15 17q-12 0 -18 -19q-80 -223 -295 -223q-106 0 -152.5 75t-46.5 247v110h523q2 10 2 21v28q0 45 -9.5 117t-44 140.5t-102.5 117.5t-184 49q-88 0 -153.5 -40 t-109.5 -104.5t-67 -148t-23 -169.5zM231 467v156q0 129 47.5 192.5t137.5 63.5q102 0 142 -62.5t40 -193.5v-156h-367zM330 1116l32 -20l310 311h-144z" />
<glyph unicode="&#xea;" horiz-adv-x="811" d="M63 449q0 -90 23 -175.5t69 -152t114.5 -107.5t160.5 -41q121 0 203 63.5t123 180.5q2 6 2 14q0 16 -15 17q-12 0 -18 -19q-80 -223 -295 -223q-106 0 -152.5 75t-46.5 247v110h523q2 10 2 21v28q0 45 -9.5 117t-44 140.5t-102.5 117.5t-184 49q-88 0 -153.5 -40 t-109.5 -104.5t-67 -148t-23 -169.5zM158 1159h47l215 146l213 -146h51l-250 248h-28zM231 467v156q0 129 47.5 192.5t137.5 63.5q102 0 142 -62.5t40 -193.5v-156h-367z" />
<glyph unicode="&#xeb;" horiz-adv-x="811" d="M63 449q0 -90 23 -175.5t69 -152t114.5 -107.5t160.5 -41q121 0 203 63.5t123 180.5q2 6 2 14q0 16 -15 17q-12 0 -18 -19q-80 -223 -295 -223q-106 0 -152.5 75t-46.5 247v110h523q2 10 2 21v28q0 45 -9.5 117t-44 140.5t-102.5 117.5t-184 49q-88 0 -153.5 -40 t-109.5 -104.5t-67 -148t-23 -169.5zM154 1292q0 -41 27.5 -68.5t68.5 -27.5t68.5 27.5t27.5 68.5t-27.5 69t-68.5 28t-68.5 -28t-27.5 -69zM231 467v156q0 129 47.5 192.5t137.5 63.5q102 0 142 -62.5t40 -193.5v-156h-367zM457 1292q0 -41 27.5 -68.5t68.5 -27.5 t68.5 27.5t27.5 68.5t-27.5 69t-68.5 28t-68.5 -28t-27.5 -69z" />
<glyph unicode="&#xec;" horiz-adv-x="497" d="M-47 1407l309 -311l33 20l-199 291h-143zM49 0h410v25h-123v866h-287v-25h123v-841h-123v-25z" />
<glyph unicode="&#xed;" horiz-adv-x="497" d="M49 0h410v25h-123v866h-287v-25h123v-841h-123v-25zM209 1116l33 -20l309 311h-143z" />
<glyph unicode="&#xee;" horiz-adv-x="497" d="M2 1159h47l215 146l213 -146h51l-249 248h-29zM49 0h410v25h-123v866h-287v-25h123v-841h-123v-25z" />
<glyph unicode="&#xef;" horiz-adv-x="497" d="M2 1292q0 -41 27.5 -68.5t68.5 -27.5t69 27.5t28 68.5t-28 69t-69 28t-68.5 -28t-27.5 -69zM49 0h410v25h-123v866h-287v-25h123v-841h-123v-25zM305 1292q0 -41 27.5 -68.5t68.5 -27.5t69 27.5t28 68.5t-28 69t-69 28t-68.5 -28t-27.5 -69z" />
<glyph unicode="&#xf0;" horiz-adv-x="915" d="M76 446q0 -88 23.5 -172t70.5 -150.5t117.5 -106.5t165.5 -40q94 0 164.5 40t117.5 106.5t70.5 150.5t23.5 172q0 115 -26.5 240t-70.5 239.5t-103.5 208t-122.5 144.5l74 133l-70 49l-76 -135q-35 20 -75 36.5t-85 27.5l-28 -60q92 -35 147 -84l-69 -127l69 -51l64 119 q51 -59 83.5 -137t55.5 -164q-68 29 -143 28q-94 0 -165 -39.5t-118 -105.5t-70.5 -149.5t-23.5 -172.5zM250 397v97q0 115 13 189.5t39 118.5t63.5 61.5t87.5 17.5q49 0 87 -17.5t63.5 -61.5t38.5 -119t13 -189v-97q0 -115 -13 -189.5t-38.5 -118.5t-63.5 -61.5t-87 -17.5 t-87 17.5t-64 61.5t-39 119t-13 189z" />
<glyph unicode="&#xf1;" d="M66 0h346v25h-101v626q0 33 15.5 71t41 70.5t60.5 54t76 21.5q49 0 79.5 -30.5t30.5 -85.5v-727h-100v-25h344v25h-100v694q0 84 -50.5 137t-154.5 53q-100 0 -155.5 -44t-86.5 -99v125h-245v-25h102v-841h-102v-25zM182 1231q0 -29 17 -29q12 0 16 25q4 31 24.5 47 t49.5 16t55.5 -14t56.5 -31q47 -23 93.5 -30t91.5 -7q47 0 76.5 13.5t47 33t23.5 41t6 37.5q0 27 -18 27q-16 0 -16 -23q0 -25 -11.5 -40t-40.5 -15t-60.5 13.5t-60.5 27.5q-35 16 -84 27.5t-96 11.5q-53 0 -86 -15.5t-51 -37t-25.5 -44t-7.5 -34.5z" />
<glyph unicode="&#xf2;" horiz-adv-x="897" d="M76 446q0 -88 23.5 -172t70.5 -150.5t117.5 -106.5t165.5 -40q94 0 164.5 40t117.5 106.5t70.5 150.5t23.5 172t-23.5 172t-70.5 150t-117.5 105.5t-164.5 39.5t-165 -39.5t-118 -105.5t-70.5 -150t-23.5 -172zM166 1407l309 -311l33 20l-199 291h-143zM250 397v97 q0 115 13 189.5t39 118.5t63.5 61.5t87.5 17.5q49 0 87 -17.5t63.5 -61.5t38.5 -119t13 -189v-97q0 -115 -13 -189.5t-38.5 -118.5t-63.5 -61.5t-87 -17.5t-87 17.5t-64 61.5t-39 119t-13 189z" />
<glyph unicode="&#xf3;" horiz-adv-x="897" d="M76 446q0 -88 23.5 -172t70.5 -150.5t117.5 -106.5t165.5 -40q94 0 164.5 40t117.5 106.5t70.5 150.5t23.5 172t-23.5 172t-70.5 150t-117.5 105.5t-164.5 39.5t-165 -39.5t-118 -105.5t-70.5 -150t-23.5 -172zM250 397v97q0 115 13 189.5t39 118.5t63.5 61.5t87.5 17.5 q49 0 87 -17.5t63.5 -61.5t38.5 -119t13 -189v-97q0 -115 -13 -189.5t-38.5 -118.5t-63.5 -61.5t-87 -17.5t-87 17.5t-64 61.5t-39 119t-13 189zM412 1116l32 -20l310 311h-144z" />
<glyph unicode="&#xf4;" horiz-adv-x="897" d="M76 446q0 -88 23.5 -172t70.5 -150.5t117.5 -106.5t165.5 -40q94 0 164.5 40t117.5 106.5t70.5 150.5t23.5 172t-23.5 172t-70.5 150t-117.5 105.5t-164.5 39.5t-165 -39.5t-118 -105.5t-70.5 -150t-23.5 -172zM186 1159h47l216 146l213 -146h51l-250 248h-29zM250 397 v97q0 115 13 189.5t39 118.5t63.5 61.5t87.5 17.5q49 0 87 -17.5t63.5 -61.5t38.5 -119t13 -189v-97q0 -115 -13 -189.5t-38.5 -118.5t-63.5 -61.5t-87 -17.5t-87 17.5t-64 61.5t-39 119t-13 189z" />
<glyph unicode="&#xf5;" horiz-adv-x="897" d="M76 446q0 -88 23.5 -172t70.5 -150.5t117.5 -106.5t165.5 -40q94 0 164.5 40t117.5 106.5t70.5 150.5t23.5 172t-23.5 172t-70.5 150t-117.5 105.5t-164.5 39.5t-165 -39.5t-118 -105.5t-70.5 -150t-23.5 -172zM162 1231q0 -29 16 -29q12 0 17 25q4 31 24.5 47t48.5 16 q29 0 55.5 -14t57.5 -31q47 -23 93 -30t91 -7q47 0 77 13.5t47.5 33t23.5 41t6 37.5q0 27 -19 27q-16 0 -16 -23q0 -25 -11 -40t-40 -15t-60.5 13.5t-60.5 27.5q-35 16 -84 27.5t-96 11.5q-53 0 -86 -15.5t-51.5 -37t-25.5 -44t-7 -34.5zM250 397v97q0 115 13 189.5 t39 118.5t63.5 61.5t87.5 17.5q49 0 87 -17.5t63.5 -61.5t38.5 -119t13 -189v-97q0 -115 -13 -189.5t-38.5 -118.5t-63.5 -61.5t-87 -17.5t-87 17.5t-64 61.5t-39 119t-13 189z" />
<glyph unicode="&#xf6;" horiz-adv-x="897" d="M76 446q0 -88 23.5 -172t70.5 -150.5t117.5 -106.5t165.5 -40q94 0 164.5 40t117.5 106.5t70.5 150.5t23.5 172t-23.5 172t-70.5 150t-117.5 105.5t-164.5 39.5t-165 -39.5t-118 -105.5t-70.5 -150t-23.5 -172zM190 1292q0 -41 28 -68.5t69 -27.5t68.5 27.5t27.5 68.5 t-27.5 69t-68.5 28t-69 -28t-28 -69zM250 397v97q0 115 13 189.5t39 118.5t63.5 61.5t87.5 17.5q49 0 87 -17.5t63.5 -61.5t38.5 -119t13 -189v-97q0 -115 -13 -189.5t-38.5 -118.5t-63.5 -61.5t-87 -17.5t-87 17.5t-64 61.5t-39 119t-13 189zM494 1292q0 -41 27.5 -68.5 t68.5 -27.5t68.5 27.5t27.5 68.5t-27.5 69t-68.5 28t-68.5 -28t-27.5 -69z" />
<glyph unicode="&#xf7;" horiz-adv-x="706" d="M111 635h516v82h-516v-82zM262 416q0 -45 32 -77t77 -32t76.5 32t31.5 77t-31.5 76.5t-76.5 31.5t-77 -31.5t-32 -76.5zM262 954q0 -45 32 -76.5t77 -31.5t76.5 31.5t31.5 76.5t-31.5 77t-76.5 32t-77 -32t-32 -77z" />
<glyph unicode="&#xf8;" horiz-adv-x="897" d="M76 446q0 -125 46 -238.5t140 -174.5l-41 -105l31 -10l39 98q74 -39 162 -39q94 0 164.5 40t117.5 106.5t70.5 150.5t23.5 172q0 66 -13 129.5t-38.5 119t-63.5 100.5t-89 75l41 105l-29 14l-41 -104q-63 29 -143 28q-94 0 -165 -39.5t-118 -105.5t-70.5 -150t-23.5 -172 zM250 397v97q0 115 13 189.5t39 118.5t63.5 61.5t87.5 17.5q80 0 125 -43l-287 -729q-20 45 -30.5 114.5t-10.5 173.5zM311 72l289 737q29 -43 42 -120t13 -195v-97q0 -115 -13 -189.5t-38.5 -118.5t-63.5 -61.5t-87 -17.5q-45 0 -80 13.5t-62 48.5z" />
<glyph unicode="&#xf9;" horiz-adv-x="929" d="M57 858h99v-633q0 -127 62.5 -184t166.5 -57q98 0 155.5 46t86.5 105v-135h245v33h-102v858h-246v-33h101v-622q0 -33 -15.5 -71t-43 -71t-64.5 -54.5t-80 -21.5q-49 0 -86 36t-37 122v715h-242v-33zM174 1407l309 -311l33 20l-199 291h-143z" />
<glyph unicode="&#xfa;" horiz-adv-x="929" d="M57 858h99v-633q0 -127 62.5 -184t166.5 -57q98 0 155.5 46t86.5 105v-135h245v33h-102v858h-246v-33h101v-622q0 -33 -15.5 -71t-43 -71t-64.5 -54.5t-80 -21.5q-49 0 -86 36t-37 122v715h-242v-33zM422 1116l33 -20l309 311h-143z" />
<glyph unicode="&#xfb;" horiz-adv-x="929" d="M57 858h99v-633q0 -127 62.5 -184t166.5 -57q98 0 155.5 46t86.5 105v-135h245v33h-102v858h-246v-33h101v-622q0 -33 -15.5 -71t-43 -71t-64.5 -54.5t-80 -21.5q-49 0 -86 36t-37 122v715h-242v-33zM203 1159h47l215 146l213 -146h51l-250 248h-28z" />
<glyph unicode="&#xfc;" horiz-adv-x="929" d="M57 858h99v-633q0 -127 62.5 -184t166.5 -57q98 0 155.5 46t86.5 105v-135h245v33h-102v858h-246v-33h101v-622q0 -33 -15.5 -71t-43 -71t-64.5 -54.5t-80 -21.5q-49 0 -86 36t-37 122v715h-242v-33zM223 1292q0 -41 28 -68.5t68 -27.5q41 0 69 27.5t28 68.5t-28 69 t-69 28t-68.5 -28t-27.5 -69zM526 1292q0 -41 28 -68.5t69 -27.5t68.5 27.5t27.5 68.5t-27.5 69t-68.5 28t-69 -28t-28 -69z" />
<glyph unicode="&#xfd;" horiz-adv-x="925" d="M27 858h127l297 -846l-105 -311q-10 -29 -26.5 -57.5t-37 -51t-44 -37t-50.5 -14.5h-8q29 25 29 72q0 37 -21.5 62.5t-58.5 25.5q-41 0 -62.5 -28.5t-21.5 -63.5q0 -45 32 -76t83 -31q74 0 130 51.5t85 137.5l409 1167h123v33h-280v-33h123l-222 -629l-221 629h152v33 h-432v-33zM483 1116l33 -20l309 311h-143z" />
<glyph unicode="&#xfe;" horiz-adv-x="890" d="M45 -479v-33h358v33h-112v608q31 -59 83 -104t132 -45q86 0 150.5 38.5t107.5 103t64.5 147.5t21.5 169q0 88 -22.5 173t-67.5 152.5t-109.5 108.5t-150.5 41q-45 0 -80 -15t-60.5 -39.5t-42 -54.5t-26.5 -56v684h-246v-33h102v-1878h-102zM289 252v346q0 29 12 76 t35.5 93t60.5 80t86 34q43 0 76 -15.5t56.5 -52.5t35 -101.5t11.5 -162.5v-213q0 -100 -12.5 -163.5t-35 -98.5t-55.5 -48.5t-74 -13.5q-39 0 -74.5 25.5t-62 62.5t-43 79t-16.5 73z" />
<glyph unicode="&#xff;" horiz-adv-x="925" d="M27 858h127l297 -846l-105 -311q-10 -29 -26.5 -57.5t-37 -51t-44 -37t-50.5 -14.5h-8q29 25 29 72q0 37 -21.5 62.5t-58.5 25.5q-41 0 -62.5 -28.5t-21.5 -63.5q0 -45 32 -76t83 -31q74 0 130 51.5t85 137.5l409 1167h123v33h-280v-33h123l-222 -629l-221 629h152v33 h-432v-33zM272 1292q0 -41 28 -68.5t69 -27.5t68.5 27.5t27.5 68.5t-27.5 69t-68.5 28t-69 -28t-28 -69zM575 1292q0 -41 28 -68.5t69 -27.5t68.5 27.5t27.5 68.5t-27.5 69t-68.5 28t-69 -28t-28 -69z" />
<glyph unicode="&#x152;" horiz-adv-x="1531" d="M61 698q0 -137 32 -268t94.5 -234.5t156.5 -166t219 -62.5q74 0 135.5 22.5t114.5 63.5v-53h617q25 0 36 10t11 39v352q0 31 -17 31q-16 0 -20 -39q-8 -66 -18.5 -129t-35 -113.5t-70.5 -82t-122 -31.5h-229v684h141q37 0 58.5 -22.5t32.5 -58.5t15.5 -81t8.5 -90 q0 -23 20 -23q16 0 16 23v539q0 25 -16 24q-20 0 -20 -22q-4 -45 -8.5 -90.5t-15.5 -81t-32.5 -58t-58.5 -22.5h-141v612h252q51 0 83.5 -20.5t51 -57.5t28 -90t15.5 -119q2 -35 20 -34q10 0 13.5 6t3.5 28v277q0 47 -43 47h-576v-61q-53 41 -115.5 62.5t-134.5 21.5 q-125 0 -219 -62.5t-156.5 -166t-94.5 -234.5t-32 -269zM266 516v328q0 258 71 408.5t208 150.5q68 0 118 -40t81.5 -112.5t48 -177t16.5 -233.5v-324q0 -96 -5 -189.5t-32 -165t-80 -115.5t-147 -44q-80 0 -133.5 41t-85 111.5t-46 164t-14.5 197.5z" />
<glyph unicode="&#x153;" horiz-adv-x="1419" d="M76 446q0 -88 23.5 -172t70.5 -150.5t118 -106.5t165 -40q100 0 172.5 45.5t119.5 116.5q47 -76 118 -121t169 -45q121 0 203 63.5t123 180.5q2 6 2 14q0 16 -14 17q-12 0 -19 -19q-80 -223 -295 -223q-106 0 -152 75t-46 247v110h522q2 10 2 21v28q0 45 -9.5 117 t-44 140.5t-102 117.5t-184.5 49q-92 0 -159.5 -43t-113.5 -114q-47 72 -120.5 115.5t-171.5 43.5q-94 0 -165 -39.5t-118 -105.5t-70.5 -149.5t-23.5 -172.5zM250 397v97q0 115 13 189.5t39 118.5t63.5 61.5t87.5 17.5q49 0 87 -17.5t63.5 -61.5t38.5 -119t13 -189v-97 q0 -115 -13 -189.5t-38.5 -118.5t-63.5 -61.5t-87 -17.5t-87 17.5t-64 61.5t-39 119t-13 189zM834 467v156q0 129 47 192.5t137 63.5q102 0 142 -62.5t40 -193.5v-156h-366z" />
<glyph unicode="&#x178;" horiz-adv-x="1015" d="M37 1370h106l310 -680v-653h-107v-37h369v37h-107v698l264 635h111v37h-266v-37h117l-248 -598l-271 598h109v37h-387v-37zM334 1554q0 -35 25.5 -60.5t60.5 -25.5q37 0 62.5 25.5t25.5 60.5t-25.5 60.5t-62.5 25.5q-35 0 -60.5 -25.5t-25.5 -60.5zM606 1554 q0 -35 25.5 -60.5t62.5 -25.5q35 0 60.5 25.5t25.5 60.5t-25.5 60.5t-60.5 25.5q-37 0 -62.5 -25.5t-25.5 -60.5z" />
<glyph unicode="&#x2c6;" horiz-adv-x="665" d="M72 1159h47l215 146l213 -146h51l-250 248h-29z" />
<glyph unicode="&#x2dc;" horiz-adv-x="712" d="M92 1231q0 -29 17 -29q12 0 16 25q4 31 24.5 47t49.5 16t55.5 -14t56.5 -31q47 -23 93.5 -30t91.5 -7q47 0 76.5 13.5t47 33t23.5 41t6 37.5q0 27 -18 27q-16 0 -17 -23q0 -25 -11 -40t-40 -15t-60.5 13.5t-60.5 27.5q-35 16 -84 27.5t-96 11.5q-53 0 -86 -15.5 t-51.5 -37t-25.5 -44t-7 -34.5z" />
<glyph unicode="&#x2000;" horiz-adv-x="852" />
<glyph unicode="&#x2001;" horiz-adv-x="1704" />
<glyph unicode="&#x2002;" horiz-adv-x="852" />
<glyph unicode="&#x2003;" horiz-adv-x="1704" />
<glyph unicode="&#x2004;" horiz-adv-x="568" />
<glyph unicode="&#x2005;" horiz-adv-x="426" />
<glyph unicode="&#x2006;" horiz-adv-x="284" />
<glyph unicode="&#x2007;" horiz-adv-x="284" />
<glyph unicode="&#x2008;" horiz-adv-x="213" />
<glyph unicode="&#x2009;" horiz-adv-x="340" />
<glyph unicode="&#x200a;" horiz-adv-x="94" />
<glyph unicode="&#x2010;" horiz-adv-x="548" d="M109 635h342v82h-342v-82z" />
<glyph unicode="&#x2011;" horiz-adv-x="548" d="M109 635h342v82h-342v-82z" />
<glyph unicode="&#x2012;" horiz-adv-x="548" d="M109 635h342v82h-342v-82z" />
<glyph unicode="&#x2013;" horiz-adv-x="700" d="M106 637h496v82h-496v-82z" />
<glyph unicode="&#x2014;" horiz-adv-x="1617" d="M115 637h1396v82h-1396v-82z" />
<glyph unicode="&#x2018;" horiz-adv-x="481" d="M106 1157q0 -49 30 -89t87 -40t86 33t29 74q0 47 -28.5 75.5t-71.5 28.5q-14 0 -31 -3t-33 -11q23 59 71 113.5t132 91.5q10 4 10 8q0 6 -8 6q-2 0 -14 -4q-51 -18 -97.5 -49t-82 -70t-57.5 -81t-22 -83z" />
<glyph unicode="&#x2019;" horiz-adv-x="450" d="M98 1032q0 -6 8 -6q2 0 15 4q51 18 97 49t82 70t57.5 81t21.5 83q0 49 -30 89t-87 40t-86 -33t-29 -74q0 -47 29 -75.5t72 -28.5q14 0 30.5 3t32.5 11q-23 -59 -70.5 -113.5t-131.5 -91.5q-10 -6 -11 -8z" />
<glyph unicode="&#x201a;" horiz-adv-x="450" d="M84 -106q0 -6 8 -7q2 0 14 4q51 18 97.5 49t82.5 70t57.5 81t21.5 83q0 49 -30 89t-87 40t-86 -32.5t-29 -73.5q0 -47 28.5 -76t71.5 -29q14 0 31 3t33 11q-23 -59 -71 -113t-132 -91q-10 -6 -10 -8z" />
<glyph unicode="&#x201c;" horiz-adv-x="849" d="M106 1157q0 -49 30 -89t87 -40t86 33t29 74q0 47 -28.5 75.5t-71.5 28.5q-14 0 -31 -3t-33 -11q23 59 71 113.5t132 91.5q10 4 10 8q0 6 -8 6q-2 0 -14 -4q-51 -18 -97.5 -49t-82 -70t-57.5 -81t-22 -83zM477 1157q0 -49 30 -89t87 -40t86 33t29 74q0 47 -29 75.5 t-72 28.5q-14 0 -30.5 -3t-32.5 -11q23 59 71 113.5t132 91.5q10 4 10 8q0 6 -8 6q-2 0 -15 -4q-51 -18 -97 -49t-82 -70t-57.5 -81t-21.5 -83z" />
<glyph unicode="&#x201d;" horiz-adv-x="860" d="M139 1032q0 -6 8 -6q2 0 15 4q51 18 97 49t82 70t57.5 81t21.5 83q0 49 -30 89t-87 40t-86 -33t-29 -74q0 -47 29 -75.5t72 -28.5q14 0 30.5 3t32.5 11q-23 -59 -71 -113.5t-131 -91.5q-10 -6 -11 -8zM510 1032q0 -6 8 -6q2 0 14 4q51 18 97.5 49t82.5 70t57.5 81 t21.5 83q0 49 -30 89t-87 40t-86 -33t-29 -74q0 -47 28.5 -75.5t71.5 -28.5q14 0 31 3t33 11q-23 -59 -71 -113.5t-132 -91.5q-10 -6 -10 -8z" />
<glyph unicode="&#x201e;" horiz-adv-x="788" d="M84 -106q0 -6 8 -7q2 0 14 4q51 18 97.5 49t82.5 70t57.5 81t21.5 83q0 49 -30 89t-87 40t-86 -32.5t-29 -73.5q0 -47 28.5 -76t71.5 -29q14 0 31 3t33 11q-23 -59 -71 -113t-132 -91q-10 -6 -10 -8zM455 -106q0 -6 8 -7q2 0 14 4q51 18 97.5 49t82 70t57 81t21.5 83 q0 49 -29.5 89t-87.5 40q-57 0 -85.5 -32.5t-28.5 -73.5q0 -47 28.5 -76t71.5 -29q14 0 30.5 3t33.5 11q-23 -59 -71 -113t-132 -91q-10 -6 -10 -8z" />
<glyph unicode="&#x2022;" d="M131 498q0 -68 26.5 -128.5t71.5 -105.5t105.5 -71.5t128.5 -26.5t128 26.5t105 71.5t72 105.5t27 128.5t-27 128t-72 105t-105.5 71.5t-127.5 26.5q-68 0 -128.5 -26.5t-105.5 -71.5t-71.5 -105.5t-26.5 -127.5z" />
<glyph unicode="&#x2026;" horiz-adv-x="1525" d="M209 96q0 -45 31.5 -76.5t76.5 -31.5t77 31.5t32 76.5t-32 77t-77 32t-76.5 -32t-31.5 -77zM655 96q0 -45 32 -76.5t77 -31.5t76.5 31.5t31.5 76.5t-31.5 77t-76.5 32t-77 -32t-32 -77zM1102 96q0 -45 31.5 -76.5t76.5 -31.5t77 31.5t32 76.5t-32 77t-77 32t-76.5 -32 t-31.5 -77z" />
<glyph unicode="&#x202f;" horiz-adv-x="340" />
<glyph unicode="&#x2039;" horiz-adv-x="514" d="M70 524l309 -303h53l-237 303l237 305h-53z" />
<glyph unicode="&#x203a;" horiz-adv-x="514" d="M84 221h57l305 303l-309 305h-53l238 -305z" />
<glyph unicode="&#x205f;" horiz-adv-x="426" />
<glyph unicode="&#x2122;" horiz-adv-x="942" d="M74 1366h12q4 35 19.5 46t48.5 11h49v-323h-51v-19h163v19h-53v323h49q33 0 48.5 -11t19.5 -46h12l-6 76h-303zM449 1081h124v17h-53v282l113 -299h10l105 320v-303h-54v-17h162v17h-51v332h51v12h-113l-90 -273l-102 273h-102v-12h53v-332h-53v-17z" />
<glyph unicode="&#x25fc;" horiz-adv-x="890" d="M0 0v891h891v-891h-891z" />
</font>
</defs>
</svg>
